# This file uses centimeters as units for non-parametric coordinates.

mtllib Lazer(Triagnulate).mtl
g default
v 0.001270 -0.007641 0.232226
v -0.016912 -0.004470 0.232226
v -0.020813 -0.000000 0.232226
v -0.016912 0.004470 0.232226
v 0.001270 0.007641 0.232226
v 0.000653 -0.040067 0.077409
v -0.037501 -0.023442 0.077409
v -0.046057 0.000000 0.077409
v -0.037501 0.023442 0.077409
v 0.001100 0.040067 0.077409
v 0.000726 -0.024589 -0.077409
v -0.019605 -0.014386 -0.077409
v -0.024232 0.000000 -0.077409
v -0.019605 0.014386 -0.077409
v 0.000726 0.024589 -0.077409
v 0.000647 -0.006844 -0.232226
v -0.004816 -0.004004 -0.232226
v -0.006144 -0.000000 -0.232226
v -0.004816 0.004004 -0.232226
v 0.001107 0.006844 -0.232226
v 0.001183 0.000000 0.265140
v 0.001107 0.000000 -0.232226
v 0.018665 0.004470 0.232226
v 0.022566 0.000000 0.232226
v 0.018665 -0.004470 0.232226
v 0.039254 0.023442 0.077409
v 0.047810 -0.000000 0.077409
v 0.039254 -0.023442 0.077409
v 0.021359 0.014386 -0.077409
v 0.025986 -0.000000 -0.077409
v 0.021359 -0.014386 -0.077409
v 0.006569 0.004004 -0.232226
v 0.007897 0.000000 -0.232226
v 0.006569 -0.004004 -0.232226
v 0.000647 -0.000000 -0.232226
vt 0.097799 0.544487
vt 0.164140 0.541148
vt 0.333825 0.554976
vt 0.338561 0.656849
vt 0.164140 0.499998
vt 0.333825 0.500000
vt 0.164140 0.458854
vt 0.333825 0.445023
vt 0.062304 0.459894
vt 0.338736 0.347925
vt 0.666176 0.551204
vt 0.667990 0.648769
vt 0.666176 0.500007
vt 0.666176 0.448787
vt 0.669257 0.358975
vt 0.835860 0.539154
vt 0.920291 0.531551
vt 0.835860 0.499978
vt 0.835860 0.460868
vt 0.921621 0.468562
vt 0.042687 0.500000
vt 0.998526 0.500002
vt 0.064922 0.539627
vt 0.164140 0.541148
vt 0.333825 0.554976
vt 0.338754 0.651549
vt 0.164140 0.499998
vt 0.333825 0.500000
vt 0.164140 0.458854
vt 0.333825 0.445023
vt 0.100489 0.455848
vt 0.339352 0.342504
vt 0.666176 0.551204
vt 0.668833 0.641742
vt 0.666176 0.500007
vt 0.666176 0.448787
vt 0.667836 0.350502
vt 0.835860 0.539154
vt 0.920278 0.530930
vt 0.835860 0.499978
vt 0.835860 0.460868
vt 0.921383 0.467862
vt 0.045873 0.500000
vt 0.998526 0.500002
vn -0.168224 -0.964678 0.202722
vn -0.347341 -0.917249 0.194958
vn -0.396782 -0.917347 0.032240
vn -0.651042 -0.758598 0.025960
vn -0.978099 -0.000000 0.208142
vn -0.999943 0.000000 0.010678
vn -0.346823 0.917554 0.194443
vn -0.647520 0.761604 0.026041
vn -0.168241 0.964773 0.202256
vn -0.393069 0.918941 0.032300
vn -0.683846 -0.720769 -0.113341
vn -0.446496 -0.889700 -0.095262
vn -0.992066 0.000948 -0.125713
vn -0.681123 0.723393 -0.113020
vn -0.446453 0.889770 -0.094811
vn -0.455452 -0.884322 -0.102660
vn -0.723735 -0.680524 -0.114433
vn -0.992937 0.022877 -0.116416
vn -0.653643 0.748167 -0.114003
vn -0.430017 0.896828 -0.103854
vn -0.831431 0.000000 0.555628
vn -0.371135 -0.870846 0.322314
vn -0.660085 0.000000 0.751191
vn -0.167484 -0.960434 0.222523
vn -0.371135 0.870846 0.322314
vn -0.167484 0.960434 0.222523
vn -0.000006 0.000000 -1.000000
vn -0.000003 0.000000 -1.000000
vn -0.000004 0.000000 -1.000000
vn 0.000000 0.000000 -1.000000
vn -0.000003 0.000000 -1.000000
vn -0.000006 0.000000 -1.000000
vn 0.175629 0.963587 0.201631
vn 0.355791 0.914233 0.193885
vn 0.397095 0.917225 0.031852
vn 0.651042 0.758598 0.025960
vn 0.978099 0.000000 0.208142
vn 0.999943 0.000000 0.010678
vn 0.355213 -0.914568 0.193364
vn 0.647520 -0.761604 0.026041
vn 0.175647 -0.963685 0.201144
vn 0.393377 -0.918823 0.031917
vn 0.680099 0.724281 -0.113505
vn 0.441236 0.892288 -0.095568
vn 0.992066 -0.000948 -0.125713
vn 0.677341 -0.726900 -0.113250
vn 0.441208 -0.892337 -0.095241
vn 0.453984 0.885094 -0.102505
vn 0.723735 0.680524 -0.114433
vn 0.992937 -0.022877 -0.116416
vn 0.652216 -0.749486 -0.113508
vn 0.430054 -0.896906 -0.103023
vn 0.838577 0.000000 0.544783
vn 0.379206 0.868453 0.319362
vn 0.676346 0.000000 0.736584
vn 0.174793 0.958999 0.223090
vn 0.379206 -0.868453 0.319362
vn 0.174793 -0.958999 0.223090
vn 0.000006 0.000000 -1.000000
vn 0.000003 0.000000 -1.000000
vn 0.000004 0.000000 -1.000000
vn 0.000000 0.000000 -1.000000
vn 0.000003 0.000000 -1.000000
vn 0.000006 0.000000 -1.000000
s 1
g pPlane4
usemtl initialShadingGroup
f 1/1/1 2/2/2 6/4/3
f 6/4/3 2/2/2 7/3/4
f 2/2/2 3/5/5 7/3/4
f 7/3/4 3/5/5 8/6/6
f 4/7/7 9/8/8 3/5/5
f 3/5/5 9/8/8 8/6/6
f 5/9/9 10/10/10 4/7/7
f 4/7/7 10/10/10 9/8/8
f 7/3/4 12/11/11 6/4/3
f 6/4/3 12/11/11 11/12/12
f 8/6/6 13/13/13 7/3/4
f 7/3/4 13/13/13 12/11/11
f 8/6/6 9/8/8 13/13/13
f 13/13/13 9/8/8 14/14/14
f 9/8/8 10/10/10 14/14/14
f 14/14/14 10/10/10 15/15/15
f 11/12/12 12/11/11 16/17/16
f 16/17/16 12/11/11 17/16/17
f 12/11/11 13/13/13 17/16/17
f 17/16/17 13/13/13 18/18/18
f 13/13/13 14/14/14 18/18/18
f 18/18/18 14/14/14 19/19/19
f 14/14/14 15/15/15 19/19/19
f 19/19/19 15/15/15 20/20/20
s 3
f 3/5/21 2/2/22 21/21/23
f 2/2/22 1/1/24 21/21/23
f 3/5/21 21/21/23 4/7/25
f 21/21/23 5/9/26 4/7/25
s 4
f 16/17/27 17/16/28 22/22/29
f 22/22/29 17/16/28 18/18/30
f 18/18/30 19/19/31 22/22/29
f 22/22/29 19/19/31 20/20/32
s 5
f 5/23/33 23/24/34 10/26/35
f 10/26/35 23/24/34 26/25/36
f 23/24/34 24/27/37 26/25/36
f 26/25/36 24/27/37 27/28/38
f 25/29/39 28/30/40 24/27/37
f 24/27/37 28/30/40 27/28/38
f 1/31/41 6/32/42 25/29/39
f 25/29/39 6/32/42 28/30/40
f 26/25/36 29/33/43 10/26/35
f 10/26/35 29/33/43 15/34/44
f 27/28/38 30/35/45 26/25/36
f 26/25/36 30/35/45 29/33/43
f 27/28/38 28/30/40 30/35/45
f 30/35/45 28/30/40 31/36/46
f 28/30/40 6/32/42 31/36/46
f 31/36/46 6/32/42 11/37/47
f 15/34/44 29/33/43 20/39/48
f 20/39/48 29/33/43 32/38/49
f 29/33/43 30/35/45 32/38/49
f 32/38/49 30/35/45 33/40/50
f 30/35/45 31/36/46 33/40/50
f 33/40/50 31/36/46 34/41/51
f 31/36/46 11/37/47 34/41/51
f 34/41/51 11/37/47 16/42/52
s 7
f 24/27/53 23/24/54 21/43/55
f 23/24/54 5/23/56 21/43/55
f 24/27/53 21/43/55 25/29/57
f 21/43/55 1/31/58 25/29/57
s 8
f 20/39/59 32/38/60 35/44/61
f 35/44/61 32/38/60 33/40/62
f 33/40/62 34/41/63 35/44/61
f 35/44/61 34/41/63 16/42/64
g default
v 0.001270 -0.007641 0.232226
v -0.016912 -0.004470 0.232226
v -0.020813 -0.000000 0.232226
v -0.016912 0.004470 0.232226
v 0.001270 0.007641 0.232226
v 0.000653 -0.040067 0.077409
v -0.037501 -0.023442 0.077409
v -0.046057 0.000000 0.077409
v -0.037501 0.023442 0.077409
v 0.001100 0.040067 0.077409
v 0.000726 -0.024589 -0.077409
v -0.019605 -0.014386 -0.077409
v -0.024232 0.000000 -0.077409
v -0.019605 0.014386 -0.077409
v 0.000726 0.024589 -0.077409
v 0.000647 -0.006844 -0.232226
v -0.004816 -0.004004 -0.232226
v -0.006144 -0.000000 -0.232226
v -0.004816 0.004004 -0.232226
v 0.001107 0.006844 -0.232226
v 0.001183 0.000000 0.265140
v 0.001107 0.000000 -0.232226
v 0.018665 0.004470 0.232226
v 0.022566 0.000000 0.232226
v 0.018665 -0.004470 0.232226
v 0.039254 0.023442 0.077409
v 0.047810 -0.000000 0.077409
v 0.039254 -0.023442 0.077409
v 0.021359 0.014386 -0.077409
v 0.025986 -0.000000 -0.077409
v 0.021359 -0.014386 -0.077409
v 0.006569 0.004004 -0.232226
v 0.007897 0.000000 -0.232226
v 0.006569 -0.004004 -0.232226
v 0.000647 -0.000000 -0.232226
vt 0.097799 0.544487
vt 0.164140 0.541148
vt 0.333825 0.554976
vt 0.338561 0.656849
vt 0.164140 0.499998
vt 0.333825 0.500000
vt 0.164140 0.458854
vt 0.333825 0.445023
vt 0.062304 0.459894
vt 0.338736 0.347925
vt 0.666176 0.551204
vt 0.667990 0.648769
vt 0.666176 0.500007
vt 0.666176 0.448787
vt 0.669257 0.358975
vt 0.835860 0.539154
vt 0.920291 0.531551
vt 0.835860 0.499978
vt 0.835860 0.460868
vt 0.921621 0.468562
vt 0.042687 0.500000
vt 0.998526 0.500002
vt 0.064922 0.539627
vt 0.164140 0.541148
vt 0.333825 0.554976
vt 0.338754 0.651549
vt 0.164140 0.499998
vt 0.333825 0.500000
vt 0.164140 0.458854
vt 0.333825 0.445023
vt 0.100489 0.455848
vt 0.339352 0.342504
vt 0.666176 0.551204
vt 0.668833 0.641742
vt 0.666176 0.500007
vt 0.666176 0.448787
vt 0.667836 0.350502
vt 0.835860 0.539154
vt 0.920278 0.530930
vt 0.835860 0.499978
vt 0.835860 0.460868
vt 0.921383 0.467862
vt 0.045873 0.500000
vt 0.998526 0.500002
vn -0.168224 -0.964678 0.202722
vn -0.347341 -0.917249 0.194958
vn -0.396782 -0.917347 0.032240
vn -0.651042 -0.758598 0.025960
vn -0.978099 -0.000000 0.208142
vn -0.999943 0.000000 0.010678
vn -0.346823 0.917554 0.194443
vn -0.647520 0.761604 0.026041
vn -0.168241 0.964773 0.202256
vn -0.393069 0.918941 0.032300
vn -0.683846 -0.720769 -0.113341
vn -0.446496 -0.889700 -0.095262
vn -0.992066 0.000948 -0.125713
vn -0.681123 0.723393 -0.113020
vn -0.446453 0.889770 -0.094811
vn -0.455452 -0.884322 -0.102660
vn -0.723735 -0.680524 -0.114433
vn -0.992937 0.022877 -0.116416
vn -0.653643 0.748167 -0.114003
vn -0.430017 0.896828 -0.103854
vn -0.831431 0.000000 0.555628
vn -0.371135 -0.870846 0.322314
vn -0.660085 0.000000 0.751191
vn -0.167484 -0.960434 0.222523
vn -0.371135 0.870846 0.322314
vn -0.167484 0.960434 0.222523
vn -0.000006 0.000000 -1.000000
vn -0.000003 0.000000 -1.000000
vn -0.000004 0.000000 -1.000000
vn 0.000000 0.000000 -1.000000
vn -0.000003 0.000000 -1.000000
vn -0.000006 0.000000 -1.000000
vn 0.175629 0.963587 0.201631
vn 0.355791 0.914233 0.193885
vn 0.397095 0.917225 0.031852
vn 0.651042 0.758598 0.025960
vn 0.978099 0.000000 0.208142
vn 0.999943 0.000000 0.010678
vn 0.355213 -0.914568 0.193364
vn 0.647520 -0.761604 0.026041
vn 0.175647 -0.963685 0.201144
vn 0.393377 -0.918823 0.031917
vn 0.680099 0.724281 -0.113505
vn 0.441236 0.892288 -0.095568
vn 0.992066 -0.000948 -0.125713
vn 0.677341 -0.726900 -0.113250
vn 0.441208 -0.892337 -0.095241
vn 0.453984 0.885094 -0.102505
vn 0.723735 0.680524 -0.114433
vn 0.992937 -0.022877 -0.116416
vn 0.652216 -0.749486 -0.113508
vn 0.430054 -0.896906 -0.103023
vn 0.838577 0.000000 0.544783
vn 0.379206 0.868453 0.319362
vn 0.676346 0.000000 0.736584
vn 0.174793 0.958999 0.223090
vn 0.379206 -0.868453 0.319362
vn 0.174793 -0.958999 0.223090
vn 0.000006 0.000000 -1.000000
vn 0.000003 0.000000 -1.000000
vn 0.000004 0.000000 -1.000000
vn 0.000000 0.000000 -1.000000
vn 0.000003 0.000000 -1.000000
vn 0.000006 0.000000 -1.000000
s 1
g pPlane4
f 36/45/65 37/46/66 41/48/67
f 41/48/67 37/46/66 42/47/68
f 37/46/66 38/49/69 42/47/68
f 42/47/68 38/49/69 43/50/70
f 39/51/71 44/52/72 38/49/69
f 38/49/69 44/52/72 43/50/70
f 40/53/73 45/54/74 39/51/71
f 39/51/71 45/54/74 44/52/72
f 42/47/68 47/55/75 41/48/67
f 41/48/67 47/55/75 46/56/76
f 43/50/70 48/57/77 42/47/68
f 42/47/68 48/57/77 47/55/75
f 43/50/70 44/52/72 48/57/77
f 48/57/77 44/52/72 49/58/78
f 44/52/72 45/54/74 49/58/78
f 49/58/78 45/54/74 50/59/79
f 46/56/76 47/55/75 51/61/80
f 51/61/80 47/55/75 52/60/81
f 47/55/75 48/57/77 52/60/81
f 52/60/81 48/57/77 53/62/82
f 48/57/77 49/58/78 53/62/82
f 53/62/82 49/58/78 54/63/83
f 49/58/78 50/59/79 54/63/83
f 54/63/83 50/59/79 55/64/84
s 3
f 38/49/85 37/46/86 56/65/87
f 37/46/86 36/45/88 56/65/87
f 38/49/85 56/65/87 39/51/89
f 56/65/87 40/53/90 39/51/89
s 4
f 51/61/91 52/60/92 57/66/93
f 57/66/93 52/60/92 53/62/94
f 53/62/94 54/63/95 57/66/93
f 57/66/93 54/63/95 55/64/96
s 5
f 40/67/97 58/68/98 45/70/99
f 45/70/99 58/68/98 61/69/100
f 58/68/98 59/71/101 61/69/100
f 61/69/100 59/71/101 62/72/102
f 60/73/103 63/74/104 59/71/101
f 59/71/101 63/74/104 62/72/102
f 36/75/105 41/76/106 60/73/103
f 60/73/103 41/76/106 63/74/104
f 61/69/100 64/77/107 45/70/99
f 45/70/99 64/77/107 50/78/108
f 62/72/102 65/79/109 61/69/100
f 61/69/100 65/79/109 64/77/107
f 62/72/102 63/74/104 65/79/109
f 65/79/109 63/74/104 66/80/110
f 63/74/104 41/76/106 66/80/110
f 66/80/110 41/76/106 46/81/111
f 50/78/108 64/77/107 55/83/112
f 55/83/112 64/77/107 67/82/113
f 64/77/107 65/79/109 67/82/113
f 67/82/113 65/79/109 68/84/114
f 65/79/109 66/80/110 68/84/114
f 68/84/114 66/80/110 69/85/115
f 66/80/110 46/81/111 69/85/115
f 69/85/115 46/81/111 51/86/116
s 7
f 59/71/117 58/68/118 56/87/119
f 58/68/118 40/67/120 56/87/119
f 59/71/117 56/87/119 60/73/121
f 56/87/119 36/75/122 60/73/121
s 8
f 55/83/123 67/82/124 70/88/125
f 70/88/125 67/82/124 68/84/126
f 68/84/126 69/85/127 70/88/125
f 70/88/125 69/85/127 51/86/128
g default
v 0.001270 -0.007641 0.232226
v -0.016912 -0.004470 0.232226
v -0.020813 -0.000000 0.232226
v -0.016912 0.004470 0.232226
v 0.001270 0.007641 0.232226
v 0.000653 -0.040067 0.077409
v -0.037501 -0.023442 0.077409
v -0.046057 0.000000 0.077409
v -0.037501 0.023442 0.077409
v 0.001100 0.040067 0.077409
v 0.000726 -0.024589 -0.077409
v -0.019605 -0.014386 -0.077409
v -0.024232 0.000000 -0.077409
v -0.019605 0.014386 -0.077409
v 0.000726 0.024589 -0.077409
v 0.000647 -0.006844 -0.232226
v -0.004816 -0.004004 -0.232226
v -0.006144 -0.000000 -0.232226
v -0.004816 0.004004 -0.232226
v 0.001107 0.006844 -0.232226
v 0.001183 0.000000 0.265140
v 0.001107 0.000000 -0.232226
v 0.018665 0.004470 0.232226
v 0.022566 0.000000 0.232226
v 0.018665 -0.004470 0.232226
v 0.039254 0.023442 0.077409
v 0.047810 -0.000000 0.077409
v 0.039254 -0.023442 0.077409
v 0.021359 0.014386 -0.077409
v 0.025986 -0.000000 -0.077409
v 0.021359 -0.014386 -0.077409
v 0.006569 0.004004 -0.232226
v 0.007897 0.000000 -0.232226
v 0.006569 -0.004004 -0.232226
v 0.000647 -0.000000 -0.232226
vt 0.097799 0.544487
vt 0.164140 0.541148
vt 0.333825 0.554976
vt 0.338561 0.656849
vt 0.164140 0.499998
vt 0.333825 0.500000
vt 0.164140 0.458854
vt 0.333825 0.445023
vt 0.062304 0.459894
vt 0.338736 0.347925
vt 0.666176 0.551204
vt 0.667990 0.648769
vt 0.666176 0.500007
vt 0.666176 0.448787
vt 0.669257 0.358975
vt 0.835860 0.539154
vt 0.920291 0.531551
vt 0.835860 0.499978
vt 0.835860 0.460868
vt 0.921621 0.468562
vt 0.042687 0.500000
vt 0.998526 0.500002
vt 0.064922 0.539627
vt 0.164140 0.541148
vt 0.333825 0.554976
vt 0.338754 0.651549
vt 0.164140 0.499998
vt 0.333825 0.500000
vt 0.164140 0.458854
vt 0.333825 0.445023
vt 0.100489 0.455848
vt 0.339352 0.342504
vt 0.666176 0.551204
vt 0.668833 0.641742
vt 0.666176 0.500007
vt 0.666176 0.448787
vt 0.667836 0.350502
vt 0.835860 0.539154
vt 0.920278 0.530930
vt 0.835860 0.499978
vt 0.835860 0.460868
vt 0.921383 0.467862
vt 0.045873 0.500000
vt 0.998526 0.500002
vn -0.168224 -0.964678 0.202722
vn -0.347341 -0.917249 0.194958
vn -0.396782 -0.917347 0.032240
vn -0.651042 -0.758598 0.025960
vn -0.978099 -0.000000 0.208142
vn -0.999943 0.000000 0.010678
vn -0.346823 0.917554 0.194443
vn -0.647520 0.761604 0.026041
vn -0.168241 0.964773 0.202256
vn -0.393069 0.918941 0.032300
vn -0.683846 -0.720769 -0.113341
vn -0.446496 -0.889700 -0.095262
vn -0.992066 0.000948 -0.125713
vn -0.681123 0.723393 -0.113020
vn -0.446453 0.889770 -0.094811
vn -0.455452 -0.884322 -0.102660
vn -0.723735 -0.680524 -0.114433
vn -0.992937 0.022877 -0.116416
vn -0.653643 0.748167 -0.114003
vn -0.430017 0.896828 -0.103854
vn -0.831431 0.000000 0.555628
vn -0.371135 -0.870846 0.322314
vn -0.660085 0.000000 0.751191
vn -0.167484 -0.960434 0.222523
vn -0.371135 0.870846 0.322314
vn -0.167484 0.960434 0.222523
vn -0.000006 0.000000 -1.000000
vn -0.000003 0.000000 -1.000000
vn -0.000004 0.000000 -1.000000
vn 0.000000 0.000000 -1.000000
vn -0.000003 0.000000 -1.000000
vn -0.000006 0.000000 -1.000000
vn 0.175629 0.963587 0.201631
vn 0.355791 0.914233 0.193885
vn 0.397095 0.917225 0.031852
vn 0.651042 0.758598 0.025960
vn 0.978099 0.000000 0.208142
vn 0.999943 0.000000 0.010678
vn 0.355213 -0.914568 0.193364
vn 0.647520 -0.761604 0.026041
vn 0.175647 -0.963685 0.201144
vn 0.393377 -0.918823 0.031917
vn 0.680099 0.724281 -0.113505
vn 0.441236 0.892288 -0.095568
vn 0.992066 -0.000948 -0.125713
vn 0.677341 -0.726900 -0.113250
vn 0.441208 -0.892337 -0.095241
vn 0.453984 0.885094 -0.102505
vn 0.723735 0.680524 -0.114433
vn 0.992937 -0.022877 -0.116416
vn 0.652216 -0.749486 -0.113508
vn 0.430054 -0.896906 -0.103023
vn 0.838577 0.000000 0.544783
vn 0.379206 0.868453 0.319362
vn 0.676346 0.000000 0.736584
vn 0.174793 0.958999 0.223090
vn 0.379206 -0.868453 0.319362
vn 0.174793 -0.958999 0.223090
vn 0.000006 0.000000 -1.000000
vn 0.000003 0.000000 -1.000000
vn 0.000004 0.000000 -1.000000
vn 0.000000 0.000000 -1.000000
vn 0.000003 0.000000 -1.000000
vn 0.000006 0.000000 -1.000000
s 1
g pPlane4
f 71/89/129 72/90/130 76/92/131
f 76/92/131 72/90/130 77/91/132
f 72/90/130 73/93/133 77/91/132
f 77/91/132 73/93/133 78/94/134
f 74/95/135 79/96/136 73/93/133
f 73/93/133 79/96/136 78/94/134
f 75/97/137 80/98/138 74/95/135
f 74/95/135 80/98/138 79/96/136
f 77/91/132 82/99/139 76/92/131
f 76/92/131 82/99/139 81/100/140
f 78/94/134 83/101/141 77/91/132
f 77/91/132 83/101/141 82/99/139
f 78/94/134 79/96/136 83/101/141
f 83/101/141 79/96/136 84/102/142
f 79/96/136 80/98/138 84/102/142
f 84/102/142 80/98/138 85/103/143
f 81/100/140 82/99/139 86/105/144
f 86/105/144 82/99/139 87/104/145
f 82/99/139 83/101/141 87/104/145
f 87/104/145 83/101/141 88/106/146
f 83/101/141 84/102/142 88/106/146
f 88/106/146 84/102/142 89/107/147
f 84/102/142 85/103/143 89/107/147
f 89/107/147 85/103/143 90/108/148
s 3
f 73/93/149 72/90/150 91/109/151
f 72/90/150 71/89/152 91/109/151
f 73/93/149 91/109/151 74/95/153
f 91/109/151 75/97/154 74/95/153
s 4
f 86/105/155 87/104/156 92/110/157
f 92/110/157 87/104/156 88/106/158
f 88/106/158 89/107/159 92/110/157
f 92/110/157 89/107/159 90/108/160
s 5
f 75/111/161 93/112/162 80/114/163
f 80/114/163 93/112/162 96/113/164
f 93/112/162 94/115/165 96/113/164
f 96/113/164 94/115/165 97/116/166
f 95/117/167 98/118/168 94/115/165
f 94/115/165 98/118/168 97/116/166
f 71/119/169 76/120/170 95/117/167
f 95/117/167 76/120/170 98/118/168
f 96/113/164 99/121/171 80/114/163
f 80/114/163 99/121/171 85/122/172
f 97/116/166 100/123/173 96/113/164
f 96/113/164 100/123/173 99/121/171
f 97/116/166 98/118/168 100/123/173
f 100/123/173 98/118/168 101/124/174
f 98/118/168 76/120/170 101/124/174
f 101/124/174 76/120/170 81/125/175
f 85/122/172 99/121/171 90/127/176
f 90/127/176 99/121/171 102/126/177
f 99/121/171 100/123/173 102/126/177
f 102/126/177 100/123/173 103/128/178
f 100/123/173 101/124/174 103/128/178
f 103/128/178 101/124/174 104/129/179
f 101/124/174 81/125/175 104/129/179
f 104/129/179 81/125/175 86/130/180
s 7
f 94/115/181 93/112/182 91/131/183
f 93/112/182 75/111/184 91/131/183
f 94/115/181 91/131/183 95/117/185
f 91/131/183 71/119/186 95/117/185
s 8
f 90/127/187 102/126/188 105/132/189
f 105/132/189 102/126/188 103/128/190
f 103/128/190 104/129/191 105/132/189
f 105/132/189 104/129/191 86/130/192
