# This file uses centimeters as units for non-parametric coordinates.

mtllib PickUp(AirFreshner).mtl
g default
v 0.111757 0.977110 -0.004681
v -0.256717 0.619492 -0.017857
v -0.159503 0.607491 0.000000
v -0.391540 0.364852 -0.047437
v -0.167250 0.822368 0.028109
v -0.080608 0.772962 0.003807
v 0.162617 0.567723 0.000000
v 0.292336 0.551710 -0.017857
v 0.310823 0.308565 -0.009999
v -0.135843 0.022402 -0.058251
v 0.044302 0.022402 0.018997
v 0.306007 0.740349 -0.000762
v 0.176513 0.735647 -0.009329
v 0.063914 0.250276 0.017237
v -0.088278 0.249447 -0.027601
v 0.132596 1.715941 -0.107048
v -0.159987 1.402124 0.098161
v -0.058343 1.622814 0.063188
v -0.148811 1.225002 0.080009
v 0.351319 1.222741 -0.270813
v 0.317528 1.477611 -0.271364
v 0.291950 1.055164 -0.154023
v -0.117723 1.386919 0.071427
v 0.129770 1.659647 -0.093329
v -0.053076 1.574456 0.047776
v 0.299810 1.241271 -0.238231
v 0.252063 1.102873 -0.141704
v 0.123726 1.047204 -0.018671
v -0.084001 1.248879 0.056304
v 0.271952 1.459153 -0.232657
v -0.048113 0.022402 -0.002414
v -0.005091 0.910645 0.009403
v 0.199935 0.870336 -0.003080
v 0.111757 0.977110 0.031354
v 0.049202 0.750719 0.041230
v 0.199935 0.870336 0.032955
v -0.007844 0.588768 0.048294
v -0.021352 0.398790 0.045902
v 0.310823 0.308565 0.026036
v 0.162617 0.567723 0.036035
v -0.005091 0.910645 0.045438
v -0.391540 0.364852 -0.011401
v -0.159503 0.607491 0.036035
v -0.088278 0.249447 0.008435
v -0.014460 0.252607 0.053496
v -0.135843 0.022402 -0.022216
v -0.048113 0.022402 0.033621
v 0.063914 0.250276 0.053273
v 0.044302 0.022402 0.055032
v -0.080608 0.772962 0.057699
v -0.256717 0.619492 0.036035
v 0.176513 0.735647 0.044563
v 0.292336 0.551710 0.036035
v -0.167250 0.822368 0.064144
v 0.306007 0.740349 0.035274
v 0.252063 1.102873 -0.123034
v 0.291950 1.055164 -0.135353
v 0.351319 1.222741 -0.252143
v 0.299810 1.241271 -0.219560
v 0.132596 1.715941 -0.088377
v -0.058343 1.622814 0.081858
v -0.053076 1.574456 0.066446
v 0.129770 1.659647 -0.074659
v 0.271952 1.459153 -0.213987
v 0.317528 1.477611 -0.252694
v -0.159987 1.402124 0.116832
v -0.117723 1.386919 0.090097
v 0.123726 1.047204 -0.000001
v 0.111757 0.977110 0.013989
v -0.084001 1.248879 0.074974
v -0.148811 1.225002 0.098679
v 0.052504 0.753644 -0.002993
v 0.001557 0.587607 0.000000
v 0.000579 0.396594 0.000363
v -0.012182 0.249862 -0.005182
v 0.061446 0.792044 -0.004732
v 0.061446 0.781359 0.049709
vt 0.742131 0.432706
vt 0.732347 0.299518
vt 0.178074 0.176989
vt 0.194406 0.109397
vt 0.740215 0.948115
vt 0.719957 0.958189
vt 0.716901 0.917109
vt 0.690946 0.920629
vt 0.803141 0.814377
vt 0.898579 0.836974
vt 0.804291 0.826808
vt 0.895703 0.847568
vt 0.731933 0.869420
vt 0.709134 0.864857
vt 0.948565 0.886694
vt 0.927269 0.889582
vt 0.804395 0.961778
vt 0.810070 0.977348
vt 0.942105 0.925587
vt 0.909674 0.919621
vt 0.040711 0.146589
vt 0.636398 0.446472
vt 0.739420 0.197139
vt 0.100628 0.106511
vt 0.105895 0.051144
vt 0.084051 0.052258
vt 0.139385 0.099951
vt 0.125118 0.048737
vt 0.781928 0.545753
vt 0.870675 0.535784
vt 0.202975 0.181102
vt 0.172782 0.284883
vt 0.827058 0.704867
vt 0.137381 0.870388
vt 0.887883 0.629941
vt 0.165918 0.641690
vt 0.052572 0.447627
vt 0.292515 0.901134
vt 0.744922 0.658779
vt 0.586520 0.488926
vt 0.408376 0.671647
vt 0.402794 0.229542
vt 0.358264 0.400348
vt 0.324353 0.228754
vt 0.252818 0.228797
vt 0.238858 0.400758
vt 0.482893 0.680856
vt 0.082407 0.210939
vt 0.349274 0.796494
vt 0.691151 0.562955
vt 0.067076 0.630080
vt 0.155048 0.768383
vt 0.416028 0.835738
vt 0.630856 0.597940
vt 0.057159 0.772690
vt 0.961245 0.538825
vt 0.690946 0.920629
vt 0.719957 0.958189
vt 0.716901 0.917109
vt 0.740215 0.948115
vt 0.803141 0.814377
vt 0.898579 0.836974
vt 0.804291 0.826808
vt 0.895703 0.847568
vt 0.731933 0.869420
vt 0.709134 0.864857
vt 0.948565 0.886694
vt 0.927269 0.889582
vt 0.804395 0.961778
vt 0.942105 0.925587
vt 0.909674 0.919621
vt 0.248718 0.782031
vt 0.287150 0.656498
vt 0.287885 0.511806
vt 0.298557 0.400622
vt 0.241902 0.811110
vt 0.790412 0.567970
vt 0.186973 0.255019
vt 0.209632 0.239188
vt 0.216932 0.242297
vt 0.192622 0.262115
vt 0.187763 0.219620
vt 0.202263 0.218686
vt 0.120825 0.236421
vt 0.117028 0.257303
vt 0.111858 0.263257
vt 0.108875 0.243972
vt 0.145394 0.263021
vt 0.144199 0.272175
vt 0.214010 0.176965
vt 0.186080 0.172062
vt 0.095672 0.198934
vt 0.568622 0.454824
vt 0.071030 0.214878
vt 0.085888 0.198956
vt 0.145929 0.093435
vt 0.201544 0.105130
vt 0.032264 0.145721
vt 0.091806 0.103276
vt 0.129162 0.041919
vt 0.101894 0.043079
vt 0.075837 0.049313
vt 0.170352 0.277194
vt 0.203704 0.950860
vt 0.810070 0.977348
vt 0.951623 0.407545
vt 0.861069 0.418411
vt 0.793880 0.196109
vt 0.966231 0.239321
vt 0.469856 0.279668
vt 0.679389 0.194279
vt 0.714974 0.036242
vt 0.781232 0.036883
vt 0.642422 0.035060
vn -0.000351 -0.012569 0.999921
vn -0.060707 -0.037740 0.997442
vn 0.059876 -0.006908 0.998182
vn 0.059876 -0.006908 0.998182
vn -0.060707 -0.037740 0.997442
vn 0.064523 0.017868 0.997756
vn 0.574063 0.262816 0.775487
vn 0.575618 0.285962 0.766087
vn 0.587425 0.312887 0.746347
vn 0.587425 0.312887 0.746347
vn 0.575618 0.285962 0.766087
vn 0.585628 0.313487 0.747506
vn 0.696717 0.120923 0.707081
vn 0.644202 -0.143958 0.751186
vn 0.695186 0.126806 0.707557
vn 0.695186 0.126806 0.707557
vn 0.644202 -0.143958 0.751186
vn 0.633549 -0.160872 0.756793
vn 0.695186 0.126806 0.707557
vn 0.649623 0.012753 0.760149
vn 0.696717 0.120923 0.707081
vn 0.696717 0.120923 0.707081
vn 0.649623 0.012753 0.760149
vn 0.628383 0.031194 0.777278
vn 0.649623 0.012753 0.760149
vn 0.567077 0.072512 0.820467
vn 0.628383 0.031194 0.777278
vn 0.628383 0.031194 0.777278
vn 0.567077 0.072512 0.820467
vn 0.552218 0.075007 0.830319
vn 0.644202 -0.143958 0.751186
vn 0.531074 -0.082919 0.843258
vn 0.633549 -0.160872 0.756793
vn 0.633549 -0.160872 0.756793
vn 0.531074 -0.082919 0.843258
vn 0.515209 -0.069874 0.854212
vn 0.543001 0.074224 0.836445
vn 0.492803 0.091708 0.865295
vn 0.574063 0.262816 0.775487
vn 0.574063 0.262816 0.775487
vn 0.492803 0.091708 0.865295
vn 0.575618 0.285962 0.766087
vn 0.361143 0.004022 0.932502
vn 0.492803 0.091708 0.865295
vn 0.341838 0.023084 0.939475
vn 0.341838 0.023084 0.939475
vn 0.492803 0.091708 0.865295
vn 0.543001 0.074224 0.836445
vn 0.519693 -0.054589 0.852607
vn 0.361143 0.004022 0.932502
vn 0.461360 -0.041606 0.886237
vn 0.461360 -0.041606 0.886237
vn 0.361143 0.004022 0.932502
vn 0.341838 0.023084 0.939475
vn -0.144418 -0.088754 0.985528
vn -0.060707 -0.037740 0.997442
vn -0.139954 -0.045884 0.989094
vn -0.139954 -0.045884 0.989094
vn -0.060707 -0.037740 0.997442
vn -0.000351 -0.012569 0.999921
vn -0.275200 0.009722 0.961338
vn -0.271140 -0.123883 0.954535
vn -0.410488 -0.021752 0.911607
vn -0.410488 -0.021752 0.911607
vn -0.271140 -0.123883 0.954535
vn -0.536935 -0.001399 0.843622
vn 0.062435 0.076000 0.995151
vn -0.275200 0.009722 0.961338
vn -0.168979 -0.036561 0.984941
vn -0.168979 -0.036561 0.984941
vn -0.275200 0.009722 0.961338
vn -0.410488 -0.021752 0.911607
vn -0.144418 -0.088754 0.985528
vn -0.271140 -0.123883 0.954535
vn -0.060707 -0.037740 0.997442
vn -0.060707 -0.037740 0.997442
vn -0.271140 -0.123883 0.954535
vn -0.275200 0.009722 0.961338
vn 0.064523 0.017868 0.997756
vn -0.060707 -0.037740 0.997442
vn 0.062435 0.076000 0.995151
vn 0.062435 0.076000 0.995151
vn -0.060707 -0.037740 0.997442
vn -0.275200 0.009722 0.961338
vn 0.026522 -0.015647 0.999526
vn -0.004778 -0.092845 0.995669
vn -0.013901 0.048463 0.998728
vn 0.026522 -0.015647 0.999526
vn 0.010363 -0.030169 0.999491
vn -0.022329 -0.048864 0.998556
vn -0.022329 -0.048864 0.998556
vn 0.010363 -0.030169 0.999491
vn -0.006198 -0.050207 0.998720
vn 0.771056 0.636767 0.000000
vn 0.771056 0.636767 0.000000
vn 0.771056 0.636767 0.000000
vn 0.771056 0.636767 0.000000
vn 0.771056 0.636767 0.000000
vn 0.771056 0.636767 0.000000
vn 0.868076 0.496431 0.000000
vn 0.868076 0.496431 0.000000
vn 0.868076 0.496432 0.000000
vn 0.868076 0.496432 0.000000
vn 0.868076 0.496431 0.000000
vn 0.868076 0.496432 0.000000
vn -0.494425 0.869220 -0.000000
vn -0.494425 0.869220 -0.000000
vn -0.494425 0.869220 -0.000000
vn -0.494425 0.869220 -0.000000
vn -0.494425 0.869220 -0.000000
vn -0.494425 0.869220 -0.000000
vn -0.722721 0.691140 -0.000000
vn -0.722721 0.691140 -0.000000
vn -0.722721 0.691140 -0.000000
vn -0.722721 0.691140 -0.000000
vn -0.722721 0.691140 -0.000000
vn -0.722721 0.691140 -0.000000
vn -0.978752 0.205047 -0.000000
vn -0.978752 0.205047 -0.000000
vn -0.978752 0.205047 -0.000000
vn -0.978752 0.205047 -0.000000
vn -0.978752 0.205047 -0.000000
vn -0.978752 0.205047 -0.000000
vn 0.000002 -1.000000 0.000000
vn -0.000001 -1.000000 0.000000
vn 0.000001 -1.000000 0.000000
vn 0.000001 -1.000000 0.000000
vn -0.000001 -1.000000 0.000000
vn -0.000002 -1.000000 0.000000
vn 0.000000 -1.000000 0.000000
vn 0.000000 -1.000000 0.000000
vn 0.000000 -1.000000 0.000000
vn 0.000000 -1.000000 0.000000
vn 0.000000 -1.000000 0.000000
vn 0.000000 -1.000000 0.000000
vn 0.996317 -0.085749 0.000000
vn 0.996317 -0.085749 0.000000
vn 0.996317 -0.085749 0.000000
vn 0.996317 -0.085749 0.000000
vn 0.996317 -0.085749 0.000000
vn 0.996317 -0.085749 0.000000
vn -0.355665 -0.934614 0.000000
vn -0.355665 -0.934614 0.000000
vn -0.355665 -0.934614 0.000000
vn -0.355665 -0.934614 0.000000
vn -0.355665 -0.934614 0.000000
vn -0.355665 -0.934614 0.000000
vn 0.229759 -0.973248 0.000000
vn 0.229758 -0.973248 0.000000
vn 0.229759 -0.973248 0.000000
vn 0.229759 -0.973248 0.000000
vn 0.229758 -0.973248 0.000000
vn 0.229758 -0.973248 0.000000
vn -0.656985 0.753904 -0.000000
vn -0.656985 0.753904 -0.000000
vn -0.656985 0.753904 -0.000000
vn -0.656985 0.753904 -0.000000
vn -0.656985 0.753904 -0.000000
vn -0.656985 0.753904 -0.000000
vn -0.122518 -0.992466 0.000000
vn -0.122518 -0.992466 0.000000
vn -0.122518 -0.992466 0.000000
vn -0.122518 -0.992466 0.000000
vn -0.122518 -0.992466 0.000000
vn -0.122518 -0.992466 0.000000
vn -0.122519 -0.992466 0.000000
vn -0.122519 -0.992466 0.000000
vn -0.122520 -0.992466 0.000000
vn -0.122520 -0.992466 0.000000
vn -0.122519 -0.992466 0.000000
vn -0.122520 -0.992466 0.000000
vn 0.846212 0.532846 0.000000
vn 0.846212 0.532846 0.000000
vn 0.846212 0.532846 0.000000
vn 0.846212 0.532846 0.000000
vn 0.846212 0.532846 0.000000
vn 0.846212 0.532846 0.000000
vn -0.478126 0.878291 -0.000000
vn -0.478126 0.878291 -0.000000
vn -0.478126 0.878291 -0.000000
vn -0.478126 0.878291 -0.000000
vn -0.478126 0.878291 -0.000000
vn -0.478126 0.878291 -0.000000
vn -0.495359 -0.868688 0.000000
vn -0.495359 -0.868688 0.000000
vn -0.495359 -0.868688 0.000000
vn -0.495359 -0.868688 0.000000
vn -0.495359 -0.868688 0.000000
vn -0.495359 -0.868688 0.000000
vn 0.036282 -0.999342 0.000000
vn 0.036282 -0.999342 0.000000
vn 0.036282 -0.999342 0.000000
vn 0.036282 -0.999342 0.000000
vn 0.036282 -0.999342 0.000000
vn 0.036282 -0.999342 0.000000
vn 0.774778 0.632233 0.000000
vn 0.774778 0.632233 0.000000
vn 0.774778 0.632233 0.000000
vn 0.774778 0.632233 0.000000
vn 0.774778 0.632233 0.000000
vn 0.774778 0.632233 0.000000
vn 0.942593 -0.333944 0.000000
vn 0.942593 -0.333944 0.000000
vn 0.942593 -0.333944 0.000000
vn 0.942593 -0.333944 0.000000
vn 0.942593 -0.333944 0.000000
vn 0.942593 -0.333944 0.000000
vn -0.945322 0.326140 -0.000000
vn -0.945322 0.326140 -0.000000
vn -0.945322 0.326140 -0.000000
vn -0.945322 0.326140 -0.000000
vn -0.945322 0.326140 -0.000000
vn -0.945322 0.326140 -0.000000
vn -0.438371 0.898794 -0.000000
vn -0.438368 0.898796 -0.000000
vn -0.438371 0.898794 -0.000000
vn -0.438371 0.898794 -0.000000
vn -0.438368 0.898796 -0.000000
vn -0.438368 0.898796 -0.000000
vn 0.422326 -0.906444 0.000000
vn 0.422326 -0.906444 0.000000
vn 0.422324 -0.906445 0.000000
vn 0.422324 -0.906445 0.000000
vn 0.422326 -0.906444 0.000000
vn 0.422324 -0.906445 0.000000
vn -0.815708 -0.578465 0.000000
vn -0.815708 -0.578465 0.000000
vn -0.815705 -0.578467 0.000000
vn -0.815705 -0.578467 0.000000
vn -0.815708 -0.578465 0.000000
vn -0.815705 -0.578468 0.000000
vn 0.790051 0.613042 0.000000
vn 0.790051 0.613041 0.000000
vn 0.790051 0.613042 0.000000
vn 0.790051 0.613042 0.000000
vn 0.790051 0.613041 0.000000
vn 0.790051 0.613041 0.000000
vn -0.991925 -0.126827 0.000000
vn -0.991925 -0.126827 0.000000
vn -0.991925 -0.126827 0.000000
vn -0.991925 -0.126827 0.000000
vn -0.991925 -0.126827 0.000000
vn -0.991925 -0.126827 0.000000
vn 0.991325 0.131430 0.000000
vn 0.991325 0.131430 0.000000
vn 0.991325 0.131430 0.000000
vn 0.991325 0.131430 0.000000
vn 0.991325 0.131430 0.000000
vn 0.991325 0.131430 0.000000
vn -0.908293 0.418335 -0.000000
vn -0.908293 0.418334 -0.000000
vn -0.908293 0.418335 -0.000000
vn -0.908293 0.418335 -0.000000
vn -0.908293 0.418334 -0.000000
vn -0.908293 0.418334 -0.000000
vn 0.945405 -0.325897 0.000000
vn 0.945405 -0.325897 0.000000
vn 0.945405 -0.325897 0.000000
vn 0.945405 -0.325897 0.000000
vn 0.945405 -0.325897 0.000000
vn 0.945405 -0.325897 0.000000
vn 0.397483 -0.917610 0.000000
vn 0.397483 -0.917610 0.000000
vn 0.397480 -0.917611 0.000000
vn 0.397480 -0.917611 0.000000
vn 0.397483 -0.917610 0.000000
vn 0.397480 -0.917611 0.000000
vn -0.397947 0.917408 -0.000000
vn -0.397947 0.917408 -0.000000
vn -0.397947 0.917408 -0.000000
vn -0.397947 0.917408 -0.000000
vn -0.397947 0.917408 -0.000000
vn -0.397947 0.917408 -0.000000
vn -0.689264 -0.724510 0.000000
vn -0.689264 -0.724510 0.000000
vn -0.689263 -0.724511 0.000000
vn -0.689263 -0.724511 0.000000
vn -0.689264 -0.724510 0.000000
vn -0.689263 -0.724511 0.000000
vn 0.696578 0.717481 0.000000
vn 0.696578 0.717481 0.000000
vn 0.696578 0.717481 0.000000
vn 0.696578 0.717481 0.000000
vn 0.696578 0.717481 0.000000
vn 0.696579 0.717481 0.000000
vn -0.998015 -0.062971 0.000000
vn -0.998015 -0.062971 0.000000
vn -0.998015 -0.062971 0.000000
vn -0.998015 -0.062971 0.000000
vn -0.998015 -0.062971 0.000000
vn -0.998015 -0.062971 0.000000
vn 0.971433 0.237315 0.000000
vn 0.971433 0.237315 0.000000
vn 0.971433 0.237315 0.000000
vn 0.971433 0.237315 0.000000
vn 0.971433 0.237315 0.000000
vn 0.971433 0.237315 0.000000
vn -0.333892 -0.029084 -0.942163
vn -0.339808 -0.033857 -0.939885
vn -0.412660 -0.093930 -0.906029
vn -0.412660 -0.093930 -0.906029
vn -0.339808 -0.033857 -0.939885
vn -0.427229 -0.106254 -0.897878
vn -0.549602 -0.253986 -0.795883
vn -0.656611 -0.084096 -0.749527
vn -0.560690 -0.238428 -0.792956
vn -0.560690 -0.238428 -0.792956
vn -0.656611 -0.084096 -0.749527
vn -0.685356 -0.028205 -0.727662
vn -0.644202 0.143958 -0.751186
vn -0.633549 0.160872 -0.756793
vn -0.525768 0.069554 -0.847779
vn -0.525768 0.069554 -0.847779
vn -0.633549 0.160872 -0.756793
vn -0.488397 0.055681 -0.870843
vn -0.570945 -0.177681 -0.801531
vn -0.594865 -0.310374 -0.741488
vn -0.581472 -0.189265 -0.791245
vn -0.581472 -0.189265 -0.791245
vn -0.594865 -0.310374 -0.741488
vn -0.598200 -0.309233 -0.739278
vn -0.649623 -0.012754 -0.760149
vn -0.628383 -0.031194 -0.777278
vn -0.581472 -0.189265 -0.791245
vn -0.581472 -0.189265 -0.791245
vn -0.628383 -0.031194 -0.777278
vn -0.570945 -0.177681 -0.801531
vn -0.695186 -0.126806 -0.707557
vn -0.696717 -0.120923 -0.707080
vn -0.649623 -0.012754 -0.760149
vn -0.649623 -0.012754 -0.760149
vn -0.696717 -0.120923 -0.707080
vn -0.628383 -0.031194 -0.777278
vn -0.696717 -0.120923 -0.707080
vn -0.695186 -0.126806 -0.707557
vn -0.644202 0.143958 -0.751186
vn -0.644202 0.143958 -0.751186
vn -0.695186 -0.126806 -0.707557
vn -0.633549 0.160872 -0.756793
vn -0.525768 0.069554 -0.847779
vn -0.488397 0.055681 -0.870843
vn -0.394107 0.026975 -0.918669
vn -0.394107 0.026975 -0.918669
vn -0.488397 0.055681 -0.870843
vn -0.349090 0.017364 -0.936928
vn 0.010363 -0.030169 0.999491
vn 0.026522 -0.015647 0.999526
vn -0.013901 0.048463 0.998728
vn 0.026522 -0.015647 0.999526
vn 0.080419 -0.166998 0.982672
vn -0.004778 -0.092845 0.995669
vn -0.004778 -0.092845 0.995669
vn 0.080419 -0.166998 0.982672
vn -0.015147 -0.122697 0.992329
vn 0.173175 -0.059951 -0.983065
vn -0.016126 0.030683 -0.999399
vn 0.091720 -0.030214 -0.995326
vn 0.091720 -0.030214 -0.995326
vn -0.016126 0.030683 -0.999399
vn -0.019831 -0.014391 -0.999700
vn -0.002144 -0.017368 -0.999847
vn -0.019831 -0.014391 -0.999700
vn -0.080703 -0.037627 -0.996028
vn -0.019831 -0.014391 -0.999700
vn -0.089874 -0.047828 -0.994804
vn -0.080703 -0.037627 -0.996028
vn -0.080703 -0.037627 -0.996028
vn -0.089874 -0.047828 -0.994804
vn -0.141481 -0.043235 -0.988996
vn 0.091720 -0.030214 -0.995326
vn -0.019831 -0.014391 -0.999700
vn -0.002144 -0.017368 -0.999847
vn 0.113814 0.084686 -0.989886
vn 0.101509 0.075342 -0.991978
vn 0.035998 0.039282 -0.998580
vn 0.035998 0.039282 -0.998580
vn 0.101509 0.075342 -0.991978
vn -0.000235 -0.001901 -0.999998
vn -0.000235 -0.001901 -0.999998
vn -0.022553 0.019233 -0.999561
vn 0.035998 0.039282 -0.998580
vn 0.035998 0.039282 -0.998580
vn -0.022553 0.019233 -0.999561
vn -0.026786 0.023241 -0.999371
vn -0.074363 -0.145957 -0.986492
vn -0.029773 -0.127224 -0.991427
vn 0.074277 0.005766 -0.997221
vn 0.074277 0.005766 -0.997221
vn -0.029773 -0.127224 -0.991427
vn 0.282527 0.011676 -0.959188
vn 0.282527 0.011676 -0.959188
vn 0.123665 0.112685 -0.985905
vn 0.074277 0.005766 -0.997221
vn 0.074277 0.005766 -0.997221
vn 0.123665 0.112685 -0.985905
vn 0.110483 0.120761 -0.986514
vn 0.374663 -0.027616 -0.926750
vn 0.270003 -0.045367 -0.961790
vn 0.240479 -0.043359 -0.969685
vn 0.240479 -0.043359 -0.969685
vn 0.270003 -0.045367 -0.961790
vn 0.282622 -0.031727 -0.958707
vn 0.536935 0.001399 -0.843623
vn 0.388978 -0.033319 -0.920644
vn 0.374663 -0.027616 -0.926750
vn 0.374663 -0.027616 -0.926750
vn 0.388978 -0.033319 -0.920644
vn 0.270003 -0.045367 -0.961790
vn -0.129609 0.091773 -0.987309
vn -0.067938 0.020827 -0.997472
vn -0.095607 0.284902 -0.953777
vn -0.095607 0.284902 -0.953777
vn -0.067938 0.020827 -0.997472
vn -0.055660 -0.032229 -0.997929
vn -0.055660 -0.032229 -0.997929
vn -0.067938 0.020827 -0.997472
vn 0.052442 0.186951 -0.980969
vn 0.052442 0.186951 -0.980969
vn -0.067938 0.020827 -0.997472
vn 0.018812 0.012205 -0.999749
vn 0.013911 -0.003506 -0.999897
vn 0.014729 -0.004953 -0.999879
vn -0.067938 0.020827 -0.997472
vn -0.067938 0.020827 -0.997472
vn 0.014729 -0.004953 -0.999879
vn 0.018812 0.012205 -0.999749
vn -0.141227 0.038667 -0.989222
vn -0.067938 0.020827 -0.997472
vn -0.138094 0.040468 -0.989592
vn -0.138094 0.040468 -0.989592
vn -0.067938 0.020827 -0.997472
vn -0.129609 0.091773 -0.987309
vn 0.073366 0.058703 0.995576
vn 0.058342 -0.037700 0.997585
vn 0.063513 0.025204 0.997663
vn 0.063513 0.025204 0.997663
vn 0.058342 -0.037700 0.997585
vn 0.026224 -0.276336 0.960703
vn 0.026224 -0.276336 0.960703
vn 0.064129 0.049233 0.996726
vn 0.063513 0.025204 0.997663
vn 0.063513 0.025204 0.997663
vn 0.064129 0.049233 0.996726
vn 0.071336 0.075316 0.994605
vn 0.072349 0.074662 0.994581
vn 0.063513 0.025204 0.997663
vn 0.071727 0.075626 0.994553
vn 0.071727 0.075626 0.994553
vn 0.063513 0.025204 0.997663
vn 0.071336 0.075316 0.994605
vn 0.078250 0.073115 0.994249
vn 0.076511 0.072226 0.994449
vn 0.063513 0.025204 0.997663
vn 0.063513 0.025204 0.997663
vn 0.076511 0.072226 0.994449
vn 0.073366 0.058703 0.995576
s off
g pPlane1
usemtl unwrapChekcerShaderSG
f 37/1/1 38/2/2 40/107/3
f 40/107/4 38/2/5 39/109/6
f 56/5/7 57/6/8 59/7/9
f 59/7/10 57/6/11 58/8/12
f 60/9/13 61/10/14 63/11/15
f 63/11/16 61/10/17 62/12/18
f 63/11/19 64/13/20 60/9/21
f 60/9/22 64/13/23 65/14/24
f 64/13/25 59/7/26 65/14/27
f 65/14/28 59/7/29 58/8/30
f 61/10/31 66/15/32 62/12/33
f 62/12/34 66/15/35 67/16/36
f 68/17/37 69/18/38 56/5/39
f 56/5/40 69/18/41 57/6/42
f 71/19/43 69/18/44 70/20/45
f 70/20/46 69/18/47 68/17/48
f 66/15/49 71/19/50 67/16/51
f 67/16/52 71/19/53 70/20/54
f 42/110/55 38/2/56 43/22/57
f 43/22/58 38/2/59 37/1/60
f 45/23/61 44/111/62 47/112/63
f 47/112/64 44/111/65 46/114/66
f 48/108/67 45/23/68 49/113/69
f 49/113/70 45/23/71 47/112/72
f 42/110/73 44/111/74 38/2/75
f 38/2/76 44/111/77 45/23/78
f 39/109/79 38/2/80 48/108/81
f 48/108/82 38/2/83 45/23/84
f 35/29/85 43/22/86 37/1/87
f 35/29/88 40/107/89 52/30/90
f 52/30/91 40/107/92 53/106/93
f 1/32/94 34/103/95 33/81/96
f 33/81/97 34/103/98 36/78/99
f 7/91/100 40/3/101 9/97/102
f 9/97/103 40/3/104 39/4/105
f 1/32/106 32/89/107 34/103/108
f 34/103/109 32/89/110 41/88/111
f 4/98/112 42/21/113 3/95/114
f 3/95/115 42/21/116 43/92/117
f 10/102/118 46/26/119 15/99/120
f 15/99/121 46/26/122 44/24/123
f 10/102/124 31/101/125 46/26/126
f 46/26/127 31/101/128 47/25/129
f 31/101/130 11/100/131 47/25/132
f 47/25/133 11/100/134 49/28/135
f 14/96/136 48/27/137 11/100/138
f 11/100/139 48/27/140 49/28/141
f 4/98/142 15/99/143 42/21/144
f 42/21/145 15/99/146 44/24/147
f 14/96/148 9/97/149 48/27/150
f 48/27/151 9/97/152 39/4/153
f 2/94/154 51/48/155 6/87/156
f 6/87/157 51/48/158 50/84/159
f 2/94/160 3/95/161 51/48/162
f 51/48/163 3/95/164 43/92/165
f 8/90/166 53/31/167 7/91/168
f 7/91/169 53/31/170 40/3/171
f 8/90/172 13/83/173 53/31/174
f 53/31/175 13/83/176 52/82/177
f 32/89/178 5/86/179 41/88/180
f 41/88/181 5/86/182 54/85/183
f 6/87/184 50/84/185 5/86/186
f 5/86/187 50/84/188 54/85/189
f 12/80/190 55/79/191 13/83/192
f 13/83/193 55/79/194 52/82/195
f 33/81/196 36/78/197 12/80/198
f 12/80/199 36/78/200 55/79/201
f 20/57/202 58/8/203 22/58/204
f 22/58/205 58/8/206 57/6/207
f 26/59/208 27/60/209 59/7/210
f 59/7/211 27/60/212 56/5/213
f 16/61/214 18/62/215 60/9/216
f 60/9/217 18/62/218 61/10/219
f 24/63/220 63/11/221 25/64/222
f 25/64/223 63/11/224 62/12/225
f 30/65/226 64/13/227 24/63/228
f 24/63/229 64/13/230 63/11/231
f 21/66/232 16/61/233 65/14/234
f 65/14/235 16/61/236 60/9/237
f 26/59/238 59/7/239 30/65/240
f 30/65/241 59/7/242 64/13/243
f 21/66/244 65/14/245 20/57/246
f 20/57/247 65/14/248 58/8/249
f 18/62/250 17/67/251 61/10/252
f 61/10/253 17/67/254 66/15/255
f 25/64/256 62/12/257 23/68/258
f 23/68/259 62/12/260 67/16/261
f 22/58/262 57/6/263 1/105/264
f 1/105/265 57/6/266 69/18/267
f 27/60/268 28/69/269 56/5/270
f 56/5/271 28/69/272 68/17/273
f 1/105/274 69/18/275 19/70/276
f 19/70/277 69/18/278 71/19/279
f 28/69/280 29/71/281 68/17/282
f 68/17/283 29/71/284 70/20/285
f 19/70/286 71/19/287 17/67/288
f 17/67/289 71/19/290 66/15/291
f 29/71/292 23/68/293 70/20/294
f 70/20/295 23/68/296 67/16/297
f 19/70/298 29/71/299 1/105/300
f 1/105/301 29/71/302 28/69/303
f 22/58/304 1/105/305 27/60/306
f 27/60/307 1/105/308 28/69/309
f 18/62/310 25/64/311 17/67/312
f 17/67/313 25/64/314 23/68/315
f 20/57/316 22/58/317 26/59/318
f 26/59/319 22/58/320 27/60/321
f 30/65/322 21/66/323 26/59/324
f 26/59/325 21/66/326 20/57/327
f 24/63/328 16/61/329 30/65/330
f 30/65/331 16/61/332 21/66/333
f 16/61/334 24/63/335 18/62/336
f 18/62/337 24/63/338 25/64/339
f 17/67/340 23/68/341 19/70/342
f 19/70/343 23/68/344 29/71/345
f 40/107/346 35/29/347 37/1/348
f 35/29/349 50/50/350 43/22/351
f 43/22/352 50/50/353 51/93/354
f 2/47/355 6/49/356 3/41/357
f 3/41/358 6/49/359 72/72/360
f 73/73/361 72/72/362 7/36/363
f 72/72/364 13/52/365 7/36/366
f 7/36/367 13/52/368 8/51/369
f 3/41/370 72/72/371 73/73/372
f 4/40/373 3/41/374 74/74/375
f 74/74/376 3/41/377 73/73/378
f 73/73/379 7/36/380 74/74/381
f 74/74/382 7/36/383 9/37/384
f 9/37/385 14/46/386 74/74/387
f 74/74/388 14/46/389 75/75/390
f 75/75/391 15/43/392 74/74/393
f 74/74/394 15/43/395 4/40/396
f 31/44/397 75/75/398 11/45/399
f 11/45/400 75/75/401 14/46/402
f 10/42/403 15/43/404 31/44/405
f 31/44/406 15/43/407 75/75/408
f 5/53/409 76/76/410 6/49/411
f 6/49/412 76/76/413 72/72/414
f 72/72/415 76/76/416 13/52/417
f 13/52/418 76/76/419 12/55/420
f 1/104/421 33/34/422 76/76/423
f 76/76/424 33/34/425 12/55/426
f 1/104/427 76/76/428 32/38/429
f 32/38/430 76/76/431 5/53/432
f 54/54/433 50/50/434 77/77/435
f 77/77/436 50/50/437 35/29/438
f 35/29/439 52/30/440 77/77/441
f 77/77/442 52/30/443 55/56/444
f 34/33/445 77/77/446 36/35/447
f 36/35/448 77/77/449 55/56/450
f 34/33/451 41/39/452 77/77/453
f 77/77/454 41/39/455 54/54/456
