# This file uses centimeters as units for non-parametric coordinates.

mtllib Projectile(Mushroom).mtl
g default
v 0.267291 0.191053 -0.167572
v 0.000000 0.191053 0.000000
v 0.133349 0.191053 -0.037498
v 0.267291 0.191053 -0.215385
v 0.020763 0.260016 0.045205
v 0.021606 0.361515 0.108530
v -0.005233 0.619304 -0.057536
v -0.032602 0.710195 -0.244926
v 0.285994 0.207625 -0.173755
v 0.274841 0.206542 -0.220237
v 0.393351 0.197006 -0.222113
v 0.382198 0.149864 -0.299669
v 0.475544 0.243269 -0.280929
v 0.492941 0.200042 -0.327411
v 0.542354 0.370336 -0.265275
v 0.533511 0.369253 -0.345464
v 0.367494 0.589134 -0.236212
v 0.356341 0.636368 -0.304797
v 0.168310 0.267858 0.013466
v 0.238467 0.353921 0.066154
v 0.321680 0.234245 -0.110820
v 0.407596 0.302435 -0.077456
v 0.305147 0.480127 -0.027956
v 0.008357 0.517940 0.041987
v 0.441219 0.460048 -0.127298
v -0.193273 -0.178311 -0.167572
v 0.223786 -0.161252 -0.167572
v -0.267291 0.191053 -0.167572
v 0.000000 -0.161252 -0.026089
v 0.133349 -0.161252 -0.055585
v -0.133349 -0.161252 -0.078942
v -0.133349 0.191053 -0.037498
v -0.224722 -0.191053 -0.215385
v -0.267291 0.191053 -0.215385
v 0.224722 -0.145089 -0.241266
v -0.311614 0.207416 -0.167572
v -0.311614 0.207416 -0.215385
v -0.422691 0.152670 -0.167572
v -0.422691 0.152670 -0.215385
v -0.535949 0.204862 -0.167572
v -0.535949 0.204862 -0.215385
v -0.594364 0.385880 -0.109677
v -0.594364 0.375172 -0.215385
v -0.390183 0.593974 -0.065903
v -0.390183 0.638802 -0.215385
v -0.139715 0.259904 0.041809
v -0.196734 0.350013 0.100105
v -0.318894 0.202165 -0.044663
v -0.400471 0.271738 -0.019920
v -0.278678 0.474787 0.038266
v -0.429614 0.458922 -0.010622
v -0.030625 0.167312 -0.215385
v 0.000000 -0.167459 -0.215385
v 0.000000 -0.191053 -0.167572
v -0.027107 0.197926 -0.217811
v -0.012872 0.443336 -0.246071
v 0.241653 0.448851 -0.290384
v -0.312373 0.442722 -0.231455
vt 0.522973 0.630459
vt 0.599513 0.080152
vt 0.527202 0.621801
vt 0.414553 0.950048
vt 0.449951 0.602183
vt 0.664248 0.115823
vt 0.392015 0.636309
vt 0.711330 0.162370
vt 0.374977 0.729125
vt 0.700661 0.240181
vt 0.476630 0.870118
vt 0.601789 0.363369
vt 0.688837 0.906955
vt 0.381238 0.347199
vt 0.379366 0.072135
vt 0.307511 0.988662
vt 0.390006 0.116266
vt 0.474049 0.122564
vt 0.598903 0.175838
vt 0.587225 0.118765
vt 0.490567 0.181821
vt 0.387471 0.178018
vt 0.383547 0.269905
vt 0.530035 0.258167
vt 0.608321 0.262516
vt 0.155153 0.791992
vt 0.290004 0.064395
vt 0.108397 0.757178
vt 0.181939 0.035015
vt 0.220960 0.807540
vt 0.281991 0.801997
vt 0.346274 0.774149
vt 0.083380 0.735586
vt 0.816074 0.626453
vt 0.375403 0.751271
vt 0.839900 0.635466
vt 0.158969 0.047947
vt 0.080249 0.070250
vt 0.098112 0.087104
vt 0.961108 0.634294
vt 0.055363 0.142322
vt 0.992376 0.726325
vt 0.071680 0.239819
vt 0.882323 0.868717
vt 0.185746 0.332556
vt 0.300491 0.118179
vt 0.163242 0.159075
vt 0.186197 0.107951
vt 0.284599 0.179484
vt 0.245790 0.252991
vt 0.169446 0.256412
vt 0.688382 0.612290
vt 0.229552 0.700016
vt 0.224539 0.728573
vt 0.686205 0.628941
vt 0.537110 0.767368
vt 0.677188 0.762815
vt 0.839628 0.762652
vt 0.553073 0.440354
vt 0.675264 0.430744
vt 0.796672 0.420075
vt 0.375759 0.459811
vt 0.156409 0.406053
vt 0.021864 0.251334
vt 0.032348 0.134521
vt 0.899997 0.605977
vt 0.143637 0.027737
vt 0.166211 0.013905
vt 0.006589 0.938922
vt 0.439100 0.936607
vt 0.610094 0.056647
vt 0.030863 0.949592
vt 0.219065 0.992862
vt 0.134321 0.979781
vt 0.469965 0.072063
vt 0.587418 0.070557
vt 0.614015 0.406253
vt 0.738090 0.255009
vt 0.742295 0.146277
vt 0.701975 0.085434
vt 0.618430 0.062128
vn 0.856429 -0.478283 -0.194356
vn 0.703926 -0.709468 -0.033813
vn 0.800259 -0.586235 -0.126148
vn 0.800259 -0.586235 -0.126148
vn 0.703926 -0.709468 -0.033813
vn 0.663197 -0.748445 0.000000
vn -0.395207 -0.911232 0.116053
vn -0.395207 -0.911232 0.116053
vn -0.395207 -0.911232 0.116053
vn -0.395207 -0.911232 0.116053
vn -0.395207 -0.911232 0.116053
vn -0.395207 -0.911232 0.116053
vn 0.396201 -0.915197 -0.073750
vn 0.396201 -0.915197 -0.073750
vn 0.396201 -0.915197 -0.073750
vn 0.396201 -0.915197 -0.073750
vn 0.396201 -0.915197 -0.073750
vn 0.396201 -0.915197 -0.073750
vn 0.915906 -0.340946 -0.211829
vn 0.915906 -0.340947 -0.211831
vn 0.915906 -0.340946 -0.211829
vn 0.915906 -0.340946 -0.211829
vn 0.915906 -0.340947 -0.211831
vn 0.915905 -0.340947 -0.211831
vn 0.775986 0.598158 -0.200132
vn 0.775987 0.598157 -0.200131
vn 0.775986 0.598158 -0.200132
vn 0.775986 0.598158 -0.200132
vn 0.775987 0.598157 -0.200131
vn 0.775987 0.598157 -0.200131
vn 0.176389 0.982159 -0.065204
vn 0.176866 0.899047 0.400541
vn 0.181480 0.954872 0.235126
vn 0.181480 0.954872 0.235126
vn 0.176866 0.899047 0.400541
vn 0.176490 0.895500 0.408572
vn 0.199620 -0.675436 0.709886
vn 0.245507 -0.633815 0.733488
vn 0.227523 -0.650576 0.724558
vn 0.227523 -0.650576 0.724558
vn 0.245507 -0.633815 0.733488
vn 0.265883 -0.614099 0.743094
vn 0.618463 -0.460347 0.636855
vn 0.573707 -0.586898 0.571324
vn 0.559616 -0.618427 0.551705
vn 0.559616 -0.618427 0.551705
vn 0.573707 -0.586898 0.571324
vn 0.558935 -0.619879 0.550765
vn 0.455282 -0.702167 0.547430
vn 0.456052 -0.623673 0.634862
vn 0.472223 -0.696161 0.540709
vn 0.472223 -0.696161 0.540709
vn 0.456052 -0.623673 0.634862
vn 0.442816 -0.603425 0.663168
vn 0.029961 -0.415429 0.909132
vn 0.186029 -0.281220 0.941440
vn 0.132260 -0.329650 0.934793
vn 0.132260 -0.329650 0.934793
vn 0.186029 -0.281220 0.941440
vn 0.303339 -0.166872 0.938157
vn 0.253561 0.604941 0.754820
vn 0.419497 0.560756 0.713845
vn 0.268442 0.731788 0.626439
vn 0.268442 0.731788 0.626439
vn 0.419497 0.560756 0.713845
vn 0.469238 0.706944 0.529194
vn 0.809002 -0.223171 0.543793
vn 0.859166 0.115094 0.498585
vn 0.748415 -0.068967 0.659635
vn 0.748415 -0.068967 0.659635
vn 0.859166 0.115094 0.498585
vn 0.745797 0.342819 0.571194
vn 0.456052 -0.623673 0.634862
vn 0.372854 -0.570665 0.731656
vn 0.442816 -0.603425 0.663168
vn 0.442816 -0.603425 0.663168
vn 0.372854 -0.570665 0.731656
vn 0.355728 -0.580525 0.732427
vn 0.448407 0.326726 0.831975
vn 0.748415 -0.068967 0.659635
vn 0.419497 0.560756 0.713845
vn 0.419497 0.560756 0.713845
vn 0.748415 -0.068967 0.659635
vn 0.745797 0.342819 0.571194
vn 0.251759 0.441400 0.861269
vn 0.448407 0.326726 0.831975
vn 0.253561 0.604941 0.754820
vn 0.253561 0.604941 0.754820
vn 0.448407 0.326726 0.831975
vn 0.419497 0.560756 0.713845
vn 0.859166 0.115094 0.498585
vn 0.469238 0.706944 0.529194
vn 0.745797 0.342819 0.571194
vn 0.745797 0.342819 0.571194
vn 0.469238 0.706944 0.529194
vn 0.419497 0.560756 0.713845
vn -0.360940 -0.917539 0.166866
vn -0.310091 -0.940773 0.137075
vn -0.325995 -0.933971 0.146373
vn -0.325995 -0.933971 0.146373
vn -0.310091 -0.940773 0.137075
vn -0.288204 -0.949466 0.124306
vn -0.597785 0.000000 0.801657
vn -0.546876 -0.035515 0.836460
vn -0.782389 -0.024746 0.622298
vn -0.782389 -0.024746 0.622298
vn -0.546876 -0.035515 0.836460
vn -0.694583 -0.077382 0.715239
vn 0.000000 0.000000 1.000000
vn 0.000000 0.000000 1.000000
vn 0.546876 -0.035515 0.836460
vn 0.546876 -0.035515 0.836460
vn 0.000000 0.000000 1.000000
vn 0.597785 0.000000 0.801657
vn 0.597785 0.000000 0.801657
vn 0.782389 -0.024746 0.622298
vn 0.546876 -0.035515 0.836460
vn 0.546876 -0.035515 0.836460
vn 0.782389 -0.024746 0.622298
vn 0.694583 -0.077382 0.715239
vn -0.546876 -0.035515 0.836460
vn -0.597785 0.000000 0.801657
vn 0.000000 0.000000 1.000000
vn 0.000000 0.000000 1.000000
vn -0.597785 0.000000 0.801657
vn 0.000000 0.000000 1.000000
vn -0.993851 -0.110722 0.000000
vn -0.993851 -0.110722 0.000000
vn -0.993851 -0.110722 0.000000
vn -0.993851 -0.110722 0.000000
vn -0.993851 -0.110722 0.000000
vn -0.993851 -0.110722 0.000000
vn 0.993851 -0.110722 0.000000
vn 0.993851 -0.110722 0.000000
vn 0.993851 -0.110722 0.000000
vn 0.993851 -0.110722 0.000000
vn 0.993851 -0.110722 0.000000
vn 0.993851 -0.110722 0.000000
vn -0.346328 -0.938114 0.000000
vn -0.346328 -0.938113 0.000000
vn -0.346328 -0.938113 0.000000
vn -0.346328 -0.938113 0.000000
vn -0.346328 -0.938113 0.000000
vn -0.346329 -0.938113 0.000000
vn 0.442084 -0.896974 0.000000
vn 0.442084 -0.896974 0.000000
vn 0.442084 -0.896974 0.000000
vn 0.442084 -0.896974 0.000000
vn 0.442084 -0.896974 0.000000
vn 0.442084 -0.896974 0.000000
vn -0.418523 -0.908206 0.000000
vn -0.418524 -0.908206 0.000000
vn -0.418524 -0.908206 0.000000
vn -0.418524 -0.908206 0.000000
vn -0.418524 -0.908206 0.000000
vn -0.418524 -0.908206 0.000000
vn -0.945908 -0.324435 0.000000
vn -0.945908 -0.324435 0.000000
vn -0.945908 -0.324436 0.000000
vn -0.945908 -0.324436 0.000000
vn -0.945908 -0.324435 0.000000
vn -0.945908 -0.324436 0.000000
vn -0.790608 0.612322 0.000000
vn -0.790608 0.612322 0.000000
vn -0.790609 0.612322 0.000000
vn -0.790609 0.612322 0.000000
vn -0.790608 0.612322 0.000000
vn -0.790609 0.612321 0.000000
vn -0.195791 0.980646 0.000000
vn -0.126089 0.948036 0.292112
vn -0.084344 0.895633 0.436724
vn -0.084344 0.895633 0.436724
vn -0.126089 0.948036 0.292112
vn -0.081909 0.891975 0.444602
vn -0.085264 -0.637825 0.765447
vn -0.145232 -0.711923 0.687076
vn -0.118956 -0.680458 0.723067
vn -0.118956 -0.680458 0.723067
vn -0.145232 -0.711923 0.687076
vn -0.179054 -0.749993 0.636749
vn -0.469375 -0.685082 0.557091
vn -0.423875 -0.765135 0.484664
vn -0.466531 -0.690734 0.552482
vn -0.466531 -0.690734 0.552482
vn -0.423875 -0.765135 0.484664
vn -0.326205 -0.883605 0.335906
vn -0.327550 -0.710791 0.622484
vn -0.345482 -0.704411 0.620038
vn -0.306555 -0.634604 0.709438
vn -0.306555 -0.634604 0.709438
vn -0.345482 -0.704411 0.620038
vn -0.286737 -0.615261 0.734327
vn 0.180838 -0.435558 0.881809
vn 0.075293 -0.345019 0.935571
vn 0.015172 -0.290708 0.956692
vn 0.015172 -0.290708 0.956692
vn 0.075293 -0.345019 0.935571
vn -0.109500 -0.171902 0.979010
vn -0.344140 0.686665 0.640358
vn -0.256339 0.528497 0.809309
vn -0.137474 0.714720 0.685767
vn -0.137474 0.714720 0.685767
vn -0.256339 0.528497 0.809309
vn -0.098238 0.580557 0.808272
vn -0.586106 0.336583 0.737016
vn -0.717258 0.112189 0.687717
vn -0.575301 -0.077314 0.814280
vn -0.575301 -0.077314 0.814280
vn -0.717258 0.112189 0.687717
vn -0.663904 -0.227711 0.712305
vn -0.306555 -0.634604 0.709438
vn -0.286737 -0.615261 0.734327
vn -0.202182 -0.585131 0.785331
vn -0.202182 -0.585131 0.785331
vn -0.286737 -0.615261 0.734327
vn -0.185524 -0.595209 0.781862
vn -0.262225 0.293794 0.919197
vn -0.256339 0.528497 0.809309
vn -0.575301 -0.077314 0.814280
vn -0.575301 -0.077314 0.814280
vn -0.256339 0.528497 0.809309
vn -0.586106 0.336583 0.737016
vn -0.256339 0.528497 0.809309
vn -0.262225 0.293794 0.919197
vn -0.098238 0.580557 0.808272
vn -0.098238 0.580557 0.808272
vn -0.262225 0.293794 0.919197
vn -0.076723 0.417594 0.905389
vn -0.717258 0.112189 0.687717
vn -0.586106 0.336583 0.737016
vn -0.344140 0.686665 0.640358
vn -0.344140 0.686665 0.640358
vn -0.586106 0.336583 0.737016
vn -0.256339 0.528497 0.809309
vn 0.442052 -0.896908 -0.012128
vn 0.386403 -0.922182 -0.016504
vn 0.343593 -0.938911 -0.019754
vn 0.343593 -0.938911 -0.019754
vn 0.386403 -0.922182 -0.016504
vn 0.316146 -0.948460 -0.021788
vn 0.000000 0.000000 -1.000000
vn 0.000000 0.000000 -1.000000
vn 0.000000 0.000000 -1.000000
vn 0.000000 0.000000 -1.000000
vn 0.000000 0.000000 -1.000000
vn 0.000000 0.000000 -1.000000
vn 0.000000 -1.000000 0.000000
vn 0.000000 -1.000000 0.000000
vn 0.000000 -1.000000 0.000000
vn 0.000000 -1.000000 0.000000
vn 0.000000 -1.000000 0.000000
vn 0.000000 -1.000000 0.000000
vn 0.000000 0.000000 -1.000000
vn 0.000000 0.000000 -1.000000
vn 0.000000 0.000000 -1.000000
vn 0.000000 0.000000 -1.000000
vn 0.000000 0.000000 -1.000000
vn 0.000000 0.000000 -1.000000
vn 0.000000 -1.000000 0.000000
vn 0.000000 -1.000000 0.000000
vn 0.000000 -1.000000 0.000000
vn 0.000000 -1.000000 0.000000
vn 0.000000 -1.000000 0.000000
vn 0.000000 -1.000000 0.000000
vn 0.000000 -1.000000 0.000000
vn 0.000000 -1.000000 0.000000
vn 0.000000 -1.000000 0.000000
vn 0.000000 -1.000000 0.000000
vn 0.000000 -1.000000 0.000000
vn 0.000000 -1.000000 0.000000
vn 0.000000 -1.000000 0.000000
vn 0.000000 -1.000000 0.000000
vn 0.000000 -1.000000 0.000000
vn 0.000000 -1.000000 0.000000
vn 0.000000 -1.000000 0.000000
vn 0.000000 -1.000000 0.000000
vn -0.024607 -0.287868 -0.957354
vn -0.022185 -0.267473 -0.963310
vn -0.000391 -0.080448 -0.996759
vn -0.000391 -0.080448 -0.996759
vn -0.022185 -0.267473 -0.963310
vn 0.000000 -0.078988 -0.996876
vn 0.000000 -0.078988 -0.996876
vn -0.006470 -0.021985 -0.999737
vn -0.000391 -0.080448 -0.996759
vn -0.000391 -0.080448 -0.996759
vn -0.006470 -0.021985 -0.999737
vn -0.006856 -0.018572 -0.999804
vn -0.209999 -0.071497 -0.975084
vn -0.186969 -0.118776 -0.975159
vn -0.103266 -0.063118 -0.992649
vn -0.103266 -0.063118 -0.992649
vn -0.186969 -0.118776 -0.975159
vn -0.083051 -0.055141 -0.995019
vn -0.000831 -0.000215 -1.000000
vn -0.016560 -0.013011 -0.999778
vn -0.000000 0.000000 -1.000000
vn -0.000000 0.000000 -1.000000
vn -0.016560 -0.013011 -0.999778
vn -0.000000 0.000000 -1.000000
vn -0.392244 0.410618 -0.823127
vn -0.194209 -0.162327 -0.967436
vn -0.437335 0.085860 -0.895191
vn -0.437335 0.085860 -0.895191
vn -0.194209 -0.162327 -0.967436
vn -0.315882 -0.095611 -0.943969
vn -0.083051 -0.055141 -0.995019
vn -0.035093 -0.014592 -0.999278
vn -0.103266 -0.063118 -0.992649
vn -0.103266 -0.063118 -0.992649
vn -0.035093 -0.014592 -0.999278
vn -0.048593 -0.017644 -0.998663
vn -0.194209 -0.162327 -0.967436
vn -0.040607 -0.092639 -0.994871
vn -0.186969 -0.118776 -0.975159
vn -0.186969 -0.118776 -0.975159
vn -0.040607 -0.092639 -0.994871
vn -0.083051 -0.055141 -0.995019
vn -0.048593 -0.017644 -0.998663
vn -0.035093 -0.014592 -0.999278
vn -0.000831 -0.000215 -1.000000
vn -0.000831 -0.000215 -1.000000
vn -0.035093 -0.014592 -0.999278
vn -0.016560 -0.013011 -0.999778
vn -0.035093 -0.014592 -0.999278
vn -0.083051 -0.055141 -0.995019
vn -0.016560 -0.013011 -0.999778
vn -0.016560 -0.013011 -0.999778
vn -0.083051 -0.055141 -0.995019
vn -0.040607 -0.092639 -0.994871
vn -0.194209 -0.162327 -0.967436
vn -0.186969 -0.118776 -0.975159
vn -0.315882 -0.095611 -0.943969
vn -0.315882 -0.095611 -0.943969
vn -0.186969 -0.118776 -0.975159
vn -0.209999 -0.071497 -0.975084
s off
g pPlane3
usemtl unwrapChekcerShaderSG
f 10/81/1 9/2/2 4/71/3
f 4/71/4 9/2/5 1/76/6
f 12/80/7 11/6/8 10/81/9
f 10/81/10 11/6/11 9/2/12
f 12/80/13 14/79/14 11/6/15
f 11/6/16 14/79/17 13/8/18
f 14/79/19 16/78/20 13/8/21
f 13/8/22 16/78/23 15/10/24
f 16/78/25 18/77/26 15/10/27
f 15/10/28 18/77/29 17/12/30
f 18/77/31 8/62/32 17/12/33
f 17/12/34 8/62/35 7/14/36
f 2/15/37 3/75/38 5/17/39
f 5/17/40 3/75/41 19/18/42
f 1/76/43 9/2/44 3/75/45
f 3/75/46 9/2/47 19/18/48
f 13/8/49 22/19/50 11/6/51
f 11/6/52 22/19/53 21/20/54
f 20/21/55 6/22/56 19/18/57
f 19/18/58 6/22/59 5/17/60
f 24/23/61 23/24/62 7/14/63
f 7/14/64 23/24/65 17/12/66
f 13/8/67 15/10/68 22/19/69
f 22/19/70 15/10/71 25/25/72
f 22/19/73 20/21/74 21/20/75
f 21/20/76 20/21/77 19/18/78
f 20/21/79 22/19/80 23/24/81
f 23/24/82 22/19/83 25/25/84
f 6/22/85 20/21/86 24/23/87
f 24/23/88 20/21/89 23/24/90
f 15/10/91 17/12/92 25/25/93
f 25/25/94 17/12/95 23/24/96
f 11/6/97 21/20/98 9/2/99
f 9/2/100 21/20/101 19/18/102
f 31/26/103 32/74/104 26/28/105
f 26/28/106 32/74/107 28/72/108
f 2/73/109 29/30/110 3/16/111
f 3/16/112 29/30/113 30/31/114
f 30/31/115 27/32/116 3/16/117
f 3/16/118 27/32/119 1/4/120
f 32/74/121 31/26/122 2/73/123
f 2/73/124 31/26/125 29/30/126
f 26/28/127 28/72/128 33/33/129
f 33/33/130 28/72/131 34/69/132
f 1/4/133 27/32/134 4/70/135
f 4/70/136 27/32/137 35/35/138
f 34/68/139 28/29/140 37/67/141
f 37/67/142 28/29/143 36/37/144
f 37/67/145 36/37/146 39/38/147
f 39/38/148 36/37/149 38/39/150
f 39/38/151 38/39/152 41/65/153
f 41/65/154 38/39/155 40/41/156
f 41/65/157 40/41/158 43/64/159
f 43/64/160 40/41/161 42/43/162
f 43/64/163 42/43/164 45/63/165
f 45/63/166 42/43/167 44/45/168
f 45/63/169 44/45/170 8/62/171
f 8/62/172 44/45/173 7/14/174
f 5/17/175 46/46/176 2/15/177
f 2/15/178 46/46/179 32/27/180
f 46/46/181 36/37/182 32/27/183
f 32/27/184 36/37/185 28/29/186
f 40/41/187 38/39/188 49/47/189
f 49/47/190 38/39/191 48/48/192
f 47/49/193 46/46/194 6/22/195
f 6/22/196 46/46/197 5/17/198
f 44/45/199 50/50/200 7/14/201
f 7/14/202 50/50/203 24/23/204
f 51/51/205 42/43/206 49/47/207
f 49/47/208 42/43/209 40/41/210
f 49/47/211 48/48/212 47/49/213
f 47/49/214 48/48/215 46/46/216
f 47/49/217 50/50/218 49/47/219
f 49/47/220 50/50/221 51/51/222
f 50/50/223 47/49/224 24/23/225
f 24/23/226 47/49/227 6/22/228
f 42/43/229 51/51/230 44/45/231
f 44/45/232 51/51/233 50/50/234
f 38/39/235 36/37/236 48/48/237
f 48/48/238 36/37/239 46/46/240
f 34/34/241 52/52/242 33/61/243
f 33/61/244 52/52/245 53/60/246
f 26/28/247 33/33/248 54/54/249
f 54/54/250 33/33/251 53/53/252
f 53/60/253 52/52/254 35/59/255
f 35/59/256 52/52/257 4/3/258
f 54/54/259 53/53/260 27/32/261
f 27/32/262 53/53/263 35/35/264
f 29/30/265 54/54/266 30/31/267
f 30/31/268 54/54/269 27/32/270
f 29/30/271 31/26/272 54/54/273
f 54/54/274 31/26/275 26/28/276
f 10/1/277 4/3/278 55/55/279
f 55/55/280 4/3/281 52/52/282
f 52/52/283 34/34/284 55/55/285
f 55/55/286 34/34/287 37/36/288
f 18/11/289 57/56/290 8/13/291
f 8/13/292 57/56/293 56/57/294
f 43/42/295 37/36/296 41/40/297
f 41/40/298 37/36/299 39/66/300
f 12/5/301 10/1/302 14/7/303
f 14/7/304 10/1/305 16/9/306
f 56/57/307 58/58/308 8/13/309
f 8/13/310 58/58/311 45/44/312
f 10/1/313 55/55/314 57/56/315
f 57/56/316 55/55/317 56/57/318
f 45/44/319 58/58/320 43/42/321
f 43/42/322 58/58/323 37/36/324
f 58/58/325 56/57/326 37/36/327
f 37/36/328 56/57/329 55/55/330
f 10/1/331 57/56/332 16/9/333
f 16/9/334 57/56/335 18/11/336
