# This file uses centimeters as units for non-parametric coordinates.

mtllib Background(Triangulated).mtl
g default
v 11.888307 16.200623 102.147190
v -11.870241 16.047012 102.147190
v 11.888307 16.200623 -102.147190
v -11.870241 16.047012 -102.147190
v 0.009033 16.123818 0.000000
vt 0.000832 -0.998414
vt 0.999168 -0.998414
vt 0.000832 0.998487
vt 0.999168 0.998487
vt 0.500000 0.000037
vn -0.006465 0.999979 0.000000
vn -0.006465 0.999979 0.000000
vn -0.006465 0.999979 0.000000
vn -0.006465 0.999979 -0.000000
vn -0.006465 0.999979 -0.000000
s 1
g pPlane4
usemtl lambert4SG
f 1/1/1 5/5/2 2/2/3
f 2/2/3 5/5/2 4/4/4
f 1/1/1 3/3/5 5/5/2
f 4/4/4 5/5/2 3/3/5
