# This file uses centimeters as units for non-parametric coordinates.

mtllib plane.mtl
g default
v -0.735552 0.000000 -8.447188
v 0.678602 0.000000 -8.447188
v -0.735552 0.000000 -12.121837
v 0.678602 0.000000 -12.121837
v -0.028475 0.268911 -8.447188
v -0.028475 0.268911 -12.121837
v 0.420489 0.191965 -12.121837
v 0.420489 0.191965 -8.447188
v -0.477439 0.191965 -8.447188
v -0.477439 0.191965 -12.121837
vt 0.000000 0.000000
vt 1.000000 0.000000
vt 1.000000 1.000000
vt 0.000000 1.000000
vt 0.500000 0.000000
vt 0.500000 1.000000
vt 0.750000 1.000000
vt 0.750000 0.000000
vt 0.250000 0.000000
vt 0.250000 1.000000
vn 0.000000 1.000000 0.000000
vn -0.355474 0.934686 0.000000
vn 0.000000 1.000000 0.000000
vn -0.355474 0.934686 0.000000
vn 0.355474 0.934686 0.000000
vn 0.355474 0.934686 0.000000
vn 0.000000 1.000000 0.000000
vn 0.000000 1.000000 0.000000
vn -0.000000 1.000000 0.000000
vn 0.000000 1.000000 0.000000
s 1
g pPlane12
usemtl initialShadingGroup1
f 1/1/1 9/9/2 3/4/3
f 3/4/3 9/9/2 10/10/4
f 7/7/5 8/8/6 4/3/7
f 4/3/7 8/8/6 2/2/8
f 6/6/9 5/5/10 7/7/5
f 7/7/5 5/5/10 8/8/6
f 10/10/4 9/9/2 6/6/9
f 6/6/9 9/9/2 5/5/10
g default
v -0.735552 0.000000 -8.447188
v 0.678602 0.000000 -8.447188
v -0.735552 0.000000 -12.121837
v 0.678602 0.000000 -12.121837
v -0.028475 0.268911 -8.447188
v -0.028475 0.268911 -12.121837
v 0.420489 0.191965 -12.121837
v 0.420489 0.191965 -8.447188
v -0.477439 0.191965 -8.447188
v -0.477439 0.191965 -12.121837
vt 0.000000 0.000000
vt 1.000000 0.000000
vt 1.000000 1.000000
vt 0.000000 1.000000
vt 0.500000 0.000000
vt 0.500000 1.000000
vt 0.750000 1.000000
vt 0.750000 0.000000
vt 0.250000 0.000000
vt 0.250000 1.000000
vn 0.000000 1.000000 0.000000
vn -0.355474 0.934686 0.000000
vn 0.000000 1.000000 0.000000
vn -0.355474 0.934686 0.000000
vn 0.355474 0.934686 0.000000
vn 0.355474 0.934686 0.000000
vn 0.000000 1.000000 0.000000
vn 0.000000 1.000000 0.000000
vn -0.000000 1.000000 0.000000
vn 0.000000 1.000000 0.000000
s 1
g pPlane12
f 11/11/11 19/19/12 13/14/13
f 13/14/13 19/19/12 20/20/14
f 17/17/15 18/18/16 14/13/17
f 14/13/17 18/18/16 12/12/18
f 16/16/19 15/15/20 17/17/15
f 17/17/15 15/15/20 18/18/16
f 20/20/14 19/19/12 16/16/19
f 16/16/19 19/19/12 15/15/20
