# This file uses centimeters as units for non-parametric coordinates.

mtllib Projectile(Sushi).mtl
g default
v 0.392347 -0.219441 -1.034981
v 0.401982 0.451037 -1.090825
v -0.673258 0.567270 -1.163382
v -0.659142 -0.204960 -1.034981
v -0.241790 -0.584434 -1.034981
v 0.025602 0.151606 0.814086
v -0.282449 -0.113100 0.552855
v -0.233822 -0.564832 0.901217
v 0.384156 -0.559472 1.034981
v 0.557827 -0.105986 0.901552
v -0.028153 -0.036619 -1.767636
v -0.092108 -0.313661 0.855230
v 0.658540 0.128897 -0.000000
v -0.113677 0.557129 -0.012266
v -0.694891 -0.032290 0.000000
v -0.318717 -0.678486 0.000000
v 0.574063 -0.577327 0.000000
vt 0.548284 0.007647
vt 0.373591 0.064409
vt 0.373591 0.248091
vt 0.548284 0.304853
vt 0.656250 0.156250
vt 0.375000 0.312500
vt 0.425000 0.312500
vt 0.475000 0.312500
vt 0.525000 0.312500
vt 0.575000 0.312500
vt 0.625000 0.312500
vt 0.375000 0.688440
vt 0.425000 0.688440
vt 0.475000 0.688440
vt 0.525000 0.688440
vt 0.575000 0.688440
vt 0.625000 0.688440
vt 0.548284 0.695147
vt 0.373591 0.751909
vt 0.373591 0.935591
vt 0.548284 0.992353
vt 0.656250 0.843750
vt 0.500000 0.150000
vt 0.500000 0.837500
vt 0.625000 0.500470
vt 0.375000 0.500470
vt 0.425000 0.500470
vt 0.475000 0.500470
vt 0.525000 0.500470
vt 0.575000 0.500470
vn 0.754472 0.652463 0.071156
vn 0.329952 0.899710 0.285749
vn -0.021193 0.896109 0.443328
vn -0.766994 0.515403 0.382203
vn -0.249821 0.955279 0.158213
vn -0.655758 0.622344 0.427399
vn -0.655363 0.503985 0.562582
vn -0.715154 0.376942 0.588617
vn -0.947191 -0.318573 0.036610
vn -0.743614 -0.656898 0.124594
vn -0.424516 -0.892478 0.152542
vn -0.018855 -0.991743 0.126847
vn -0.048168 -0.996847 -0.063056
vn 0.308593 -0.950383 0.039277
vn 0.478962 -0.871781 0.102923
vn 0.935392 -0.306174 0.176916
vn 0.888990 -0.405034 -0.213645
vn 0.984965 0.171207 0.023064
vn 0.855662 0.469433 0.217889
vn 0.382452 0.882809 0.272724
vn 0.442013 0.570656 -0.692081
vn 0.725024 -0.443624 -0.526819
vn 0.119302 0.022118 -0.992612
vn -0.386636 0.412375 -0.824900
vn -0.686369 -0.303553 -0.660873
vn -0.124565 -0.776880 -0.617205
vn -0.276714 0.153890 0.948550
vn -0.711157 0.290375 0.640264
vn -0.347617 0.291780 0.891082
vn -0.328735 0.346344 0.878623
vn -0.179295 0.330267 0.926702
vn -0.144506 0.238017 0.960451
vn 0.970612 -0.033792 -0.238264
vn 0.780384 0.625299 0.001118
vn 0.110359 0.992877 -0.044901
vn -0.349607 0.919821 0.178055
vn -0.999258 -0.023357 -0.030618
vn -0.968762 -0.247866 0.007891
vn -0.668158 -0.734852 -0.116440
vn -0.270762 -0.956674 -0.107061
vn 0.465179 -0.808199 -0.361141
vn 0.741610 -0.583023 -0.331811
s 1
g pCylinder1
usemtl initialShadingGroup
f 13/26/1 14/27/2 6/12/3
f 6/12/3 14/27/2 7/13/4
s 2
f 14/27/5 15/28/6 7/13/7
f 7/13/7 15/28/6 8/14/8
s 3
f 15/28/9 16/29/10 8/14/11
f 8/14/11 16/29/10 9/15/12
s 4
f 16/29/13 17/30/14 9/15/15
f 9/15/15 17/30/14 10/16/16
s 5
f 17/30/17 13/25/18 10/16/19
f 10/16/19 13/25/18 6/17/20
s 6
f 2/2/21 1/1/22 11/23/23
f 3/3/24 2/2/21 11/23/23
f 4/4/25 3/3/24 11/23/23
f 5/5/26 4/4/25 11/23/23
f 1/1/22 5/5/26 11/23/23
s 7
f 6/21/27 7/20/28 12/24/29
f 7/20/28 8/19/30 12/24/29
f 8/19/30 9/18/31 12/24/29
f 9/18/31 10/22/32 12/24/29
f 10/22/32 6/21/27 12/24/29
s 1
f 1/6/33 2/7/34 13/26/1
f 13/26/1 2/7/34 14/27/2
s 2
f 2/7/35 3/8/36 14/27/5
f 14/27/5 3/8/36 15/28/6
s 3
f 3/8/37 4/9/38 15/28/9
f 15/28/9 4/9/38 16/29/10
s 4
f 4/9/39 5/10/40 16/29/13
f 16/29/13 5/10/40 17/30/14
s 5
f 5/10/41 1/11/42 17/30/17
f 17/30/17 1/11/42 13/25/18
