# This file uses centimeters as units for non-parametric coordinates.

mtllib Background.mtl
g default
v -11.879534 9.377334 25.296931
v -9.503627 5.900795 25.296931
v -7.127721 4.187829 25.296931
v -4.751813 3.068615 25.296931
v -2.375907 2.769232 25.296931
v 0.000000 2.617585 25.296931
v 2.375907 2.769232 25.296931
v 4.751813 3.068615 25.296931
v 7.127721 4.187829 25.296931
v 9.503628 5.900795 25.296931
v 11.879534 9.377334 25.296931
v -11.879534 9.377334 -25.296931
v -9.503627 5.900795 -25.296931
v -7.127721 4.187829 -25.296931
v -4.751813 3.068615 -25.296931
v -2.375907 2.769232 -25.296931
v 0.000000 2.617585 -25.296931
v 2.375907 2.769232 -25.296931
v 4.751813 3.068615 -25.296931
v 7.127721 4.187829 -25.296931
v 9.503628 5.900795 -25.296931
v 11.879534 9.377334 -25.296931
vt 0.000832 -0.003194
vt 0.100666 -0.003194
vt 0.200499 -0.003194
vt 0.300333 -0.003194
vt 0.400166 -0.003194
vt 0.500000 -0.003194
vt 0.599834 -0.003194
vt 0.699667 -0.003194
vt 0.799501 -0.003194
vt 0.899335 -0.003194
vt 0.999168 -0.003194
vt 0.000832 0.991488
vt 0.100666 0.991488
vt 0.200499 0.991488
vt 0.300333 0.991488
vt 0.400166 0.991488
vt 0.500000 0.991488
vt 0.599834 0.991488
vt 0.699667 0.991488
vt 0.799501 0.991488
vt 0.899335 0.991488
vt 0.999168 0.991488
vn 0.825615 0.564234 0.000000
vn 0.737524 0.675321 0.000000
vn 0.825615 0.564234 0.000000
vn 0.737524 0.675321 0.000000
vn 0.511980 0.858997 0.000000
vn 0.511980 0.858997 0.000000
vn 0.286062 0.958211 0.000000
vn 0.286062 0.958211 0.000000
vn 0.094493 0.995526 0.000000
vn 0.094493 0.995526 0.000000
vn -0.000000 1.000000 0.000000
vn -0.000000 1.000000 0.000000
vn -0.094493 0.995526 0.000000
vn -0.094493 0.995526 0.000000
vn -0.286062 0.958211 0.000000
vn -0.286062 0.958211 0.000000
vn -0.511980 0.858997 0.000000
vn -0.511980 0.858997 0.000000
vn -0.737525 0.675320 0.000000
vn -0.737525 0.675320 0.000000
vn -0.825615 0.564234 0.000000
vn -0.825615 0.564234 0.000000
s 1
g pPlane1
usemtl initialShadingGroup
f 1/1/1 2/2/2 12/12/3
f 12/12/3 2/2/2 13/13/4
f 2/2/2 3/3/5 13/13/4
f 13/13/4 3/3/5 14/14/6
f 3/3/5 4/4/7 14/14/6
f 14/14/6 4/4/7 15/15/8
f 4/4/7 5/5/9 15/15/8
f 15/15/8 5/5/9 16/16/10
f 5/5/9 6/6/11 16/16/10
f 16/16/10 6/6/11 17/17/12
f 6/6/11 7/7/13 17/17/12
f 17/17/12 7/7/13 18/18/14
f 7/7/13 8/8/15 18/18/14
f 18/18/14 8/8/15 19/19/16
f 8/8/15 9/9/17 19/19/16
f 19/19/16 9/9/17 20/20/18
f 9/9/17 10/10/19 20/20/18
f 20/20/18 10/10/19 21/21/20
f 10/10/19 11/11/21 21/21/20
f 21/21/20 11/11/21 22/22/22
g default
v -11.879534 9.377334 25.296931
v -9.503627 5.900795 25.296931
v -7.127721 4.187829 25.296931
v -4.751813 3.068615 25.296931
v -2.375907 2.769232 25.296931
v 0.000000 2.617585 25.296931
v 2.375907 2.769232 25.296931
v 4.751813 3.068615 25.296931
v 7.127721 4.187829 25.296931
v 9.503628 5.900795 25.296931
v 11.879534 9.377334 25.296931
v -11.879534 9.377334 -25.296931
v -9.503627 5.900795 -25.296931
v -7.127721 4.187829 -25.296931
v -4.751813 3.068615 -25.296931
v -2.375907 2.769232 -25.296931
v 0.000000 2.617585 -25.296931
v 2.375907 2.769232 -25.296931
v 4.751813 3.068615 -25.296931
v 7.127721 4.187829 -25.296931
v 9.503628 5.900795 -25.296931
v 11.879534 9.377334 -25.296931
vt 0.000832 -0.003194
vt 0.100666 -0.003194
vt 0.200499 -0.003194
vt 0.300333 -0.003194
vt 0.400166 -0.003194
vt 0.500000 -0.003194
vt 0.599834 -0.003194
vt 0.699667 -0.003194
vt 0.799501 -0.003194
vt 0.899335 -0.003194
vt 0.999168 -0.003194
vt 0.000832 0.991488
vt 0.100666 0.991488
vt 0.200499 0.991488
vt 0.300333 0.991488
vt 0.400166 0.991488
vt 0.500000 0.991488
vt 0.599834 0.991488
vt 0.699667 0.991488
vt 0.799501 0.991488
vt 0.899335 0.991488
vt 0.999168 0.991488
vn 0.825615 0.564234 0.000000
vn 0.737524 0.675321 0.000000
vn 0.825615 0.564234 0.000000
vn 0.737524 0.675321 0.000000
vn 0.511980 0.858997 0.000000
vn 0.511980 0.858997 0.000000
vn 0.286062 0.958211 0.000000
vn 0.286062 0.958211 0.000000
vn 0.094493 0.995526 0.000000
vn 0.094493 0.995526 0.000000
vn -0.000000 1.000000 0.000000
vn -0.000000 1.000000 0.000000
vn -0.094493 0.995526 0.000000
vn -0.094493 0.995526 0.000000
vn -0.286062 0.958211 0.000000
vn -0.286062 0.958211 0.000000
vn -0.511980 0.858997 0.000000
vn -0.511980 0.858997 0.000000
vn -0.737525 0.675320 0.000000
vn -0.737525 0.675320 0.000000
vn -0.825615 0.564234 0.000000
vn -0.825615 0.564234 0.000000
s 1
g pPlane1
f 23/23/23 24/24/24 34/34/25
f 34/34/25 24/24/24 35/35/26
f 24/24/24 25/25/27 35/35/26
f 35/35/26 25/25/27 36/36/28
f 25/25/27 26/26/29 36/36/28
f 36/36/28 26/26/29 37/37/30
f 26/26/29 27/27/31 37/37/30
f 37/37/30 27/27/31 38/38/32
f 27/27/31 28/28/33 38/38/32
f 38/38/32 28/28/33 39/39/34
f 28/28/33 29/29/35 39/39/34
f 39/39/34 29/29/35 40/40/36
f 29/29/35 30/30/37 40/40/36
f 40/40/36 30/30/37 41/41/38
f 30/30/37 31/31/39 41/41/38
f 41/41/38 31/31/39 42/42/40
f 31/31/39 32/32/41 42/42/40
f 42/42/40 32/32/41 43/43/42
f 32/32/41 33/33/43 43/43/42
f 43/43/42 33/33/43 44/44/44
